<?xml version="1.0" encoding="utf-8"?><!-- Generator: Adobe Illustrator 19.1.1, SVG Export Plug-In . SVG Version: 6.00 Build 0)  --><svg xmlns="http://www.w3.org/2000/svg" xmlns:xlink="http://www.w3.org/1999/xlink" version="1.1" x="0px" y="0px" viewBox="0 0 48 48" enable-background="new 0 0 48 48" xml:space="preserve" width="528" height="528">
<path fill="#D84315" d="M45,20.8c0,0.5-0.3,0.9-0.7,1.1c-0.7,0.2-1.7,0.1-2.4-0.2c-1.1-0.4-2.1-1-3.3-0.8c-0.9,0.2-1.6,0.8-2.5,0.9  c-1.1,0.1-2,0.2-2.9-0.4c-1.6-1-3.6-1.7-5.3-0.9c-0.6,0.3-1,0.7-1.6,1c-0.8,0.4-1.8,0.5-2.7,0.3c-1.8-0.5-3.7-2-5-2  c-1.3,0-2.2,0.9-3.3,1.5c-1.6,0.9-3.6,0.7-5.3,0c-1.2-0.6-1.9-1.5-3-1.5c-1.3,0-2.3,1.4-3,1.9c-0.4,0.3-1,0-1-0.5V9.9  C3,9.5,3.1,9,3.4,8.7C4,7.9,5.2,6.9,6.3,7c1.3,0.1,2.3,0.6,3.5,1.2c1.7,0.8,3.6,1.3,5.1,0.4c1.1-0.6,2.3-1.3,3.6-1.5  c1.8-0.2,3.2,1.6,5,2.1c0.9,0.2,1.9,0.1,2.7-0.3c0.5-0.3,1-0.7,1.6-1c1.7-0.8,3.7-0.1,5.3,0.9C34.1,9.2,35,9,36.1,8.9  C37,8.8,37.7,8.2,38.6,8c1.1-0.2,2.2,0.4,3.3,0.8c0.7,0.3,1.7,0.4,2.4,0.2C44.6,8.9,45,9.2,45,9.6L45,20.8z"/>
<path fill="#FF5722" d="M45,39.8c0,0.5-0.3,0.9-0.7,1.1c-0.7,0.2-1.7,0.1-2.4-0.2c-1.1-0.4-2.1-1-3.3-0.8c-0.9,0.2-1.6,0.8-2.5,0.9  c-1.1,0.1-2,0.2-2.9-0.4c-1.6-1-3.6-1.7-5.3-0.9c-0.6,0.3-1,0.7-1.6,1c-0.8,0.4-1.8,0.5-2.7,0.3c-1.8-0.5-3.7-2-5-2  c-1.3,0-2.2,0.9-3.3,1.6c-1.6,0.9-3.6,0.7-5.3,0c-1.2-0.6-1.9-1.5-3-1.5c-1.3,0-2.3,1.4-3,1.9c-0.4,0.3-1,0-1-0.5V28.7  c0-0.4,0.1-0.8,0.4-1.2c0.7-0.9,1.8-1.6,3-1.5c1.3,0.1,2.3,0.4,3.5,1c1.7,0.8,3.6,1.3,5.1,0.4c1.1-0.6,2.3-1.1,3.6-1.3  c1.8-0.2,3.2,1.4,5,1.9c0.9,0.3,1.9,0.1,2.7-0.3c0.5-0.3,1-0.7,1.6-1c1.7-0.8,3.7-0.1,5.3,0.9c0.9,0.6,1.8,0.4,2.9,0.3  c0.9-0.1,1.6-0.7,2.5-0.9c1.1-0.2,2.2,0.4,3.3,0.8c0.7,0.3,1.7,0.4,2.4,0.2c0.4-0.1,0.8,0.2,0.8,0.6L45,39.8z"/>
<path fill="#FFF3E0" d="M44.3,18.6c-0.4,0.1-0.9,0.1-1.3,0.1c-0.4,0-0.9-0.2-1.4-0.4c-0.3-0.2-0.7-0.3-1.1-0.5  c-0.7-0.3-1.4-0.5-2-0.4c-0.2,0-0.4,0.1-0.6,0.2c-0.3,0.1-0.5,0.2-0.8,0.3c-0.7,0.2-1.4,0.4-2.2,0.4c-0.4,0-0.7-0.1-1.2-0.2  c-0.4-0.1-0.8-0.3-1-0.5c-0.6-0.4-1-0.6-1.5-0.8c-1.1-0.4-2.3-0.5-3.3,0L27,17.3l-0.4,0.3l-0.2,0.1l-0.1,0l-0.1,0l0,0l0,0L26,17.9  c-0.9,0.4-1.8,0.3-2.7,0c-0.8-0.3-1.4-0.8-1.9-1.2c-0.6-0.4-1.1-0.7-1.7-0.9c-0.6-0.2-1.2-0.2-1.7,0c-0.6,0.2-1.1,0.5-1.6,0.9L16,17  l-0.4,0.3l-0.4,0.3l-0.1,0.1c-0.1,0.1-0.1,0.1-0.1,0.1c-0.1,0-0.1,0.1-0.2,0.1c-0.7,0.3-1.4,0.3-2,0.3c-0.6,0-1.3-0.2-1.8-0.4  c-0.6-0.2-1-0.5-1.5-0.8c-0.9-0.6-1.7-1-2.6-1.2c-0.8-0.2-1.6-0.1-2.1,0.1c-0.6,0.2-1,0.4-1.3,0.6C3.1,16.7,3,16.8,3,16.8  s0.1-0.1,0.4-0.3C3.6,16.3,4,16,4.6,15.8c0.6-0.2,1.4-0.4,2.2-0.3c0.9,0.1,1.8,0.5,2.7,1c0.5,0.2,1,0.5,1.5,0.7  c0.5,0.2,1.1,0.3,1.6,0.3c0.6,0,1.2-0.1,1.6-0.3c0.1,0,0.1-0.1,0.2-0.1c0,0,0.1-0.1,0.1,0l0.1-0.1l0.4-0.3l0.4-0.3l0.4-0.3  c0.5-0.4,1.1-0.9,1.9-1.1c0.7-0.3,1.6-0.3,2.4-0.1c1.6,0.3,2.8,1.4,3.8,1.8c0.5,0.2,1,0.1,1.4-0.1c0.6-0.4,1.1-0.8,1.7-1.2  c1.5-0.8,3.3-0.8,4.7-0.4c0.7,0.2,1.5,0.6,2,0.9c0.3,0.1,0.5,0.2,0.7,0.3c0.1,0,0.4,0.1,0.6,0c0.4,0,0.9-0.1,1.3-0.3  c0.2-0.1,0.5-0.2,0.7-0.4c0.3-0.1,0.6-0.3,1-0.4c0.7-0.2,1.4-0.2,2-0.1c0.6,0.1,1.1,0.3,1.6,0.4c0.4,0.2,0.8,0.3,1.2,0.4  c0.2,0.1,0.4,0.1,0.6,0.1c0.2,0,0.2,0,0.3,0c0.2-0.1,0.4-0.1,0.6-0.2c0.1,0,0.5-0.3,0.9-0.5v3.4c0,0-0.1,0-0.1,0  C44.7,18.5,44.5,18.6,44.3,18.6z M4.2,10.5C3.7,10.6,3.3,10.8,3,11v3.9c0.6-0.5,1.2-1.1,1.3-1.2c0.2-0.1,0.5-0.3,0.8-0.5  C5.5,13,6,12.9,6.6,13c0.6,0.1,1.3,0.4,2.3,0.9c0.2,0.1,0.5,0.2,0.7,0.4l0.2,0.1l0.2,0.1l0.1,0c0.1,0,0.3,0.1,0.5,0.2  c0.7,0.2,1.4,0.4,2.1,0.4c0.7,0,1.5-0.1,2.3-0.5c0.8-0.4,1.3-0.9,1.8-1.3c0.5-0.4,0.9-0.7,1.4-0.9c0.1,0,0.2-0.1,0.4-0.1l0.1,0  c0,0,0.1,0,0.1,0c0.1,0,0.2,0,0.2,0c0.2,0,0.5,0,0.7,0.1c0.5,0.1,1.1,0.4,1.7,0.7c0.6,0.3,1.2,0.8,2,1.1c0.8,0.3,1.8,0.3,2.6-0.1  c0.8-0.4,1.2-0.9,1.8-1.2c1-0.6,2.3-0.6,3.5-0.3c1.1,0.3,2.3,1.1,3.7,1.2c0.7,0,1.3-0.1,1.9-0.4c0.6-0.3,1-0.5,1.5-0.6  c0.9-0.3,1.9,0,2.7,0.2c0.8,0.3,1.5,0.6,2.2,0.7c0.3,0,0.6,0,0.9-0.1c0.2-0.1,0.4-0.2,0.6-0.2c0.3-0.1,0.5-0.2,0.5-0.2  s-0.2,0-0.5,0.1c-0.3,0-0.8,0.2-1.4,0.1c-0.6,0-1.2-0.4-2-0.8c-0.8-0.3-1.8-0.7-3-0.4c-0.6,0.1-1.1,0.4-1.6,0.6  c-0.5,0.2-1,0.3-1.5,0.2c-0.5-0.1-1.1-0.3-1.6-0.6c-0.5-0.3-1.2-0.6-1.8-0.8c-1.3-0.4-3-0.6-4.4,0.1c-0.7,0.3-1.3,0.9-1.7,1  c-0.5,0.2-1,0.2-1.5-0.1c-1-0.5-2.1-1.6-3.8-2.1c-0.4-0.1-0.8-0.2-1.3-0.2c-0.1,0-0.2,0-0.3,0c-0.1,0,0,0-0.2,0l-0.2,0  c-0.2,0-0.4,0.1-0.6,0.1c-0.8,0.3-1.5,0.7-2.1,1.1c-0.6,0.4-1,0.8-1.4,0.9c-0.4,0.2-0.9,0.2-1.3,0.2c-0.5,0-0.9-0.2-1.3-0.3  c-0.1,0-0.2-0.1-0.3-0.1l-0.1,0l0,0l0,0c0.1,0.1,0,0,0.1,0l0,0L10.8,12c-0.2-0.1-0.5-0.3-0.7-0.4c-0.8-0.5-1.9-1.1-3-1.3  C6,10,4.9,10.2,4.2,10.5z M44.9,37.5C44.9,37.5,45,37.5,44.9,37.5l0.1-3.4c-0.4,0.3-0.8,0.5-0.9,0.5c-0.2,0-0.4,0.1-0.6,0.2  c-0.1,0-0.1,0-0.3,0c-0.2,0-0.4,0-0.6-0.1c-0.4-0.1-0.7-0.3-1.2-0.4c-0.4-0.2-1-0.3-1.6-0.4c-0.6-0.1-1.3-0.1-2,0.1  c-0.3,0.1-0.7,0.2-1,0.4c-0.2,0.1-0.5,0.2-0.7,0.4c-0.4,0.2-0.8,0.3-1.3,0.3c-0.2,0-0.5,0-0.6,0c-0.2,0-0.4-0.1-0.7-0.3  c-0.5-0.3-1.3-0.7-2-0.9c-1.4-0.4-3.2-0.5-4.7,0.4c-0.6,0.4-1.1,0.8-1.7,1.2c-0.4,0.2-1,0.3-1.4,0.1c-1.1-0.4-2.3-1.5-3.8-1.8  c-0.8-0.2-1.6-0.1-2.4,0.1c-0.7,0.3-1.3,0.7-1.9,1.1l-0.4,0.3l-0.4,0.3l-0.4,0.3l-0.1,0.1c0.1,0,0,0-0.1,0c-0.1,0-0.1,0.1-0.2,0.1  c-0.5,0.2-1.1,0.3-1.6,0.3c-0.6,0-1.1-0.1-1.6-0.3c-0.5-0.2-1-0.4-1.5-0.7c-0.9-0.5-1.9-0.9-2.7-1c-0.9-0.1-1.7,0-2.2,0.3  c-0.6,0.2-1,0.5-1.2,0.7C3.1,35.7,3,35.8,3,35.8s0.1-0.1,0.4-0.3c0.3-0.2,0.7-0.4,1.3-0.6c0.6-0.2,1.3-0.3,2.1-0.1  c0.8,0.2,1.7,0.6,2.6,1.2c0.5,0.2,0.9,0.6,1.5,0.8c0.6,0.2,1.2,0.4,1.8,0.4c0.6,0,1.3,0,2-0.3c0.1,0,0.2-0.1,0.2-0.1  c0.1,0,0,0,0.1-0.1l0.1-0.1l0.4-0.3L16,36l0.4-0.3c0.5-0.4,1-0.7,1.6-0.9c0.5-0.2,1.2-0.1,1.7,0c0.6,0.2,1.1,0.5,1.7,0.9  c0.6,0.4,1.1,0.8,1.9,1.2c0.8,0.4,1.8,0.4,2.7,0l0.2-0.1l0,0l0,0l0.1,0l0.1,0l0.2-0.1l0.4-0.3l0.8-0.5c1-0.5,2.2-0.4,3.3,0  c0.6,0.2,0.9,0.4,1.5,0.8c0.3,0.2,0.6,0.4,1,0.5c0.5,0.2,0.8,0.2,1.2,0.2c0.8,0,1.5-0.1,2.2-0.4c0.3-0.1,0.5-0.2,0.8-0.3  c0.2-0.1,0.4-0.1,0.6-0.2c0.7-0.1,1.3,0.1,2,0.4c0.4,0.2,0.7,0.3,1.1,0.5c0.5,0.2,0.9,0.3,1.4,0.4c0.4,0.1,0.9,0,1.3-0.1  C44.5,37.6,44.7,37.5,44.9,37.5z M4.2,29.5C3.7,29.6,3.3,29.8,3,30v3.9c0.6-0.5,1.2-1.1,1.3-1.2c0.2-0.1,0.5-0.3,0.8-0.5  C5.5,32,6,31.9,6.6,32c0.6,0.1,1.3,0.4,2.3,0.9c0.2,0.1,0.5,0.2,0.7,0.4l0.2,0.1l0.2,0.1l0.1,0c0.1,0,0.3,0.1,0.5,0.2  c0.7,0.2,1.4,0.4,2.1,0.4c0.7,0,1.5-0.1,2.3-0.5c0.8-0.4,1.3-0.9,1.8-1.3c0.5-0.4,0.9-0.7,1.4-0.9c0.1,0,0.2-0.1,0.4-0.1l0.1,0  c0,0,0.1,0,0.1,0c0.1,0,0.2,0,0.2,0c0.2,0,0.5,0,0.7,0.1c0.5,0.1,1.1,0.4,1.7,0.7c0.6,0.3,1.2,0.8,2,1.1c0.8,0.3,1.8,0.3,2.6-0.1  c0.8-0.4,1.2-0.9,1.8-1.2c1-0.6,2.3-0.6,3.5-0.3c1.1,0.3,2.3,1.1,3.7,1.2c0.7,0,1.3-0.1,1.9-0.4c0.6-0.3,1-0.5,1.5-0.6  c0.9-0.3,1.9,0,2.7,0.2c0.8,0.3,1.5,0.6,2.2,0.7c0.3,0,0.6,0,0.9-0.1c0.2-0.1,0.4-0.2,0.6-0.2c0.3-0.1,0.5-0.2,0.5-0.2  s-0.2,0-0.5,0.1c-0.3,0-0.8,0.2-1.4,0.1c-0.6,0-1.2-0.4-2-0.8c-0.8-0.3-1.8-0.7-3-0.4c-0.6,0.1-1.1,0.4-1.6,0.6  c-0.5,0.2-1,0.3-1.5,0.2c-0.5-0.1-1.1-0.3-1.6-0.6c-0.5-0.3-1.2-0.6-1.8-0.8c-1.3-0.4-3-0.6-4.4,0.1c-0.7,0.3-1.3,0.9-1.7,1  c-0.5,0.2-1,0.2-1.5-0.1c-1-0.5-2.1-1.6-3.8-2.1c-0.4-0.1-0.8-0.2-1.3-0.2c-0.1,0-0.2,0-0.3,0c-0.1,0,0,0-0.2,0l-0.2,0  c-0.2,0-0.4,0.1-0.6,0.1c-0.8,0.3-1.5,0.7-2.1,1.1c-0.6,0.4-1,0.8-1.4,0.9c-0.4,0.2-0.9,0.2-1.3,0.2c-0.5,0-0.9-0.2-1.3-0.3  c-0.1,0-0.2-0.1-0.3-0.1l-0.1,0l0,0l0,0c0.1,0.1,0,0,0.1,0l0,0L10.8,31c-0.2-0.1-0.5-0.3-0.7-0.4c-0.8-0.5-1.9-1.1-3-1.3  C6,29,4.9,29.2,4.2,29.5z"/>
</svg>