<?xml version="1.0" encoding="utf-8"?><!-- Generator: Adobe Illustrator 15.0.0, SVG Export Plug-In . SVG Version: 6.00 Build 0)  --><!DOCTYPE svg PUBLIC "-//W3C//DTD SVG 1.1//EN" "http://www.w3.org/Graphics/SVG/1.1/DTD/svg11.dtd"><svg xmlns="http://www.w3.org/2000/svg" xmlns:xlink="http://www.w3.org/1999/xlink" version="1.1" x="0px" y="0px" width="528" height="528" viewBox="0 0 48 48" enable-background="new 0 0 48 48" xml:space="preserve">
<g>
	<circle fill="#FFECB3" cx="15" cy="10" r="6"/>
	<circle fill="#FFECB3" cx="22.5" cy="8.5" r="5.5"/>
	<circle fill="#FFECB3" cx="29.5" cy="9.5" r="3.5"/>
	<circle fill="#FFECB3" cx="26.5" cy="13.5" r="3.5"/>
	<circle fill="#FFECB3" cx="8.5" cy="10.5" r="2.5"/>
	<circle fill="#FFECB3" cx="32.5" cy="10.5" r="2.5"/>
</g>
<g>
	<path fill="#BBDEFB" d="M32.51,39L32.51,39c-3.032,0-5.5-2.468-5.5-5.5v-11c0-0.289-0.004-0.518-0.007-0.697   c-0.01-0.633-0.019-1.179,0.466-1.672l0.44-0.447l0.662-0.014c0.414,0,0.709,0.16,0.868,0.246c0.007,0.004,0.014,0.007,0.02,0.011   C30.862,19.094,34.674,17,37.51,17c4.5,0,4.5,3.442,4.5,5.499c-0.055,1.002-0.523,9.111-1.039,11.338   c-0.747,3.232-2.789,5.162-5.461,5.162L32.51,39z M30.01,23v10.5c0,1.378,1.121,2.5,2.5,2.5l2.999-0.001   c1.639,0,2.294-1.778,2.54-2.838c0.387-1.675,0.826-8.325,0.963-10.747C39.01,20,38.896,20,37.51,20   c-2.095,0-5.812,2.05-6.949,2.769L30.193,23H30.01z"/>
	<path fill="#BBDEFB" d="M8,40v2c0,1.104,0.896,2,2,2h21c1.104,0,2-0.896,2-2v-2H8z"/>
</g>
<rect x="8" y="12" fill="#FFB300" width="25" height="28"/>
<rect x="8" y="12" fill="#FFD54F" width="25" height="8"/>
<circle fill="#FFECB3" cx="24.5" cy="27.5" r="1.5"/>
<circle fill="#FFE082" cx="26.5" cy="33.5" r="1.5"/>
<circle fill="#FFF8E1" cx="29" cy="25" r="1"/>
<g>
	<path fill="#FFFDF0" d="M14.396,19.542c0.556-2.895,0.556-6.045-2.063-7.542C14,10,19,10,20.688,12   c-2.908,1.662-2.59,5.362-1.863,8.487c0.584,1.629,0.95,3.096,1.094,4.029c0.002,0.012,0.003,0.022,0.005,0.034   c0.041,0.271,0.068,0.513,0.068,0.677c0,1.922-1.559,3.48-3.48,3.48c-1.923,0-3.48-1.559-3.48-3.48c0-0.15,0.022-0.361,0.056-0.599   C13.228,23.5,13.723,21.802,14.396,19.542z"/>
	<path fill="#FFFDF0" d="M21.899,12C21.436,9.717,19.419,8,17,8s-4.436,1.717-4.899,4H21.899z"/>
	<path fill="#FFFDF0" d="M25.949,12C25.982,11.838,26,11.671,26,11.5c0-1.381-1.119-2.5-2.5-2.5S21,10.119,21,11.5   c0,0.171,0.018,0.338,0.05,0.5H25.949z"/>
</g>
</svg>