<?xml version="1.0" encoding="utf-8"?><!-- Generator: Adobe Illustrator 15.0.0, SVG Export Plug-In . SVG Version: 6.00 Build 0)  --><!DOCTYPE svg PUBLIC "-//W3C//DTD SVG 1.1//EN" "http://www.w3.org/Graphics/SVG/1.1/DTD/svg11.dtd"><svg xmlns="http://www.w3.org/2000/svg" xmlns:xlink="http://www.w3.org/1999/xlink" version="1.1" x="0px" y="0px" width="528" height="528" viewBox="0 0 48 48" enable-background="new 0 0 48 48" xml:space="preserve">
<path fill="#FFB300" d="M40.061,7.939c4.852,4.853,0.109,14.49-8.761,23.361c-8.87,8.867-18.508,13.611-23.36,8.76  c-4.853-4.853-0.11-14.49,8.76-23.361C25.569,7.831,35.208,3.087,40.061,7.939z"/>
<g>
	<path fill="#FFA000" d="M19.906,28.937c0.305,4.182-0.345,6.569-1.195,7.933c-1.815,1.631-2.672,1.815-2.672,1.815   S15.752,27.319,16.063,23c0.021-0.292,1.396-2.146,1.396-2.146S19.591,24.617,19.906,28.937z"/>
	<path fill="#FFA000" d="M27.906,22.249c0.305,4.182-0.346,6.569-1.195,7.933c-1.815,1.631-2.672,1.815-2.672,1.815   s-0.287-11.365,0.023-15.685c0.021-0.292,1.396-2.146,1.396-2.146S27.592,17.93,27.906,22.249z"/>
	<path fill="#FFA000" d="M35.928,15.957c0.305,4.182-0.346,6.569-1.195,7.933c-1.815,1.631-2.672,1.815-2.672,1.815   s-0.287-11.365,0.023-15.685c0.021-0.292,1.396-2.146,1.396-2.146S35.612,11.638,35.928,15.957z"/>
</g>
<g>
	<path fill="#FFE082" d="M18,30.843c0,4.331-1.961,7.842-1.961,7.842s-1.96-3.511-1.96-7.842c0-4.331,1.96-7.843,1.96-7.843   S18,26.512,18,30.843z"/>
	<path fill="#FFE082" d="M26.014,24.157c0,4.332-1.96,7.843-1.96,7.843s-1.96-3.511-1.961-7.843c0-4.33,1.961-7.842,1.961-7.842   S26.014,19.827,26.014,24.157z"/>
	<path fill="#FFE082" d="M34,17.842c0,4.332-1.961,7.843-1.961,7.843s-1.96-3.511-1.961-7.843c0-4.33,1.961-7.842,1.961-7.842   S34,13.512,34,17.842z"/>
</g>
</svg>