<?xml version="1.0" encoding="utf-8"?><!-- Generator: Adobe Illustrator 15.0.0, SVG Export Plug-In . SVG Version: 6.00 Build 0)  --><!DOCTYPE svg PUBLIC "-//W3C//DTD SVG 1.1//EN" "http://www.w3.org/Graphics/SVG/1.1/DTD/svg11.dtd"><svg xmlns="http://www.w3.org/2000/svg" xmlns:xlink="http://www.w3.org/1999/xlink" version="1.1" x="0px" y="0px" width="528" height="528" viewBox="0 0 48 48" enable-background="new 0 0 48 48" xml:space="preserve">
<g>
	<path fill="#BCAAA4" d="M29.253,16.513c-0.117-0.189-1.15-1.898-1.15-3.528c0-0.979,0.376-1.585,0.65-2.026   c0.218-0.352,0.35-0.563,0.35-0.974c0-0.898-0.613-2.09-0.851-2.474l-0.283-0.458L29.665,6l0.287,0.456   c0.117,0.189,1.15,1.898,1.15,3.528c0,0.98-0.376,1.586-0.65,2.028c-0.218,0.351-0.35,0.563-0.35,0.972   c0,0.898,0.613,2.09,0.851,2.474L29.253,16.513z"/>
	<path fill="#BCAAA4" d="M24.269,16.513c-0.117-0.189-1.15-1.898-1.15-3.528c0-0.979,0.376-1.585,0.65-2.026   c0.218-0.352,0.35-0.563,0.35-0.974c0-0.898-0.613-2.09-0.851-2.474l-0.283-0.458L24.681,6l0.287,0.456   c0.117,0.189,1.15,1.898,1.15,3.528c0,0.98-0.376,1.586-0.65,2.028c-0.218,0.351-0.35,0.563-0.35,0.972   c0,0.898,0.613,2.09,0.851,2.474L24.269,16.513z"/>
	<path fill="#BCAAA4" d="M19.284,16.513c-0.117-0.189-1.15-1.898-1.15-3.528c0-0.979,0.376-1.585,0.65-2.026   c0.218-0.352,0.35-0.563,0.35-0.974c0-0.898-0.613-2.09-0.851-2.474L18,7.053L19.696,6l0.287,0.456   c0.117,0.189,1.15,1.898,1.15,3.528c0,0.98-0.376,1.586-0.65,2.028c-0.218,0.351-0.35,0.563-0.35,0.972   c0,0.898,0.613,2.09,0.851,2.474L19.284,16.513z"/>
</g>
<g>
	<path fill="none" stroke="#F50057" stroke-width="2" stroke-linecap="round" d="M30,33.001c0,0,7.74-4.721,10.5-7.293   C44.479,22,43,20,41.084,19.208C38.778,18.256,36.063,21.311,34,23"/>
	<path fill="#F50057" d="M17.777,37h12.445c7-4.583,7.777-22,7.777-22H10C10,15,11.556,32.417,17.777,37z"/>
</g>
<path fill="#AD1457" d="M4.3,36c1.59,2.836,9.792,6,19.7,6c9.908,0,18.109-3.164,19.7-6H4.3z"/>
</svg>