<?xml version="1.0" encoding="utf-8"?><!-- Generator: Adobe Illustrator 15.0.0, SVG Export Plug-In . SVG Version: 6.00 Build 0)  --><!DOCTYPE svg PUBLIC "-//W3C//DTD SVG 1.1//EN" "http://www.w3.org/Graphics/SVG/1.1/DTD/svg11.dtd"><svg xmlns="http://www.w3.org/2000/svg" xmlns:xlink="http://www.w3.org/1999/xlink" version="1.1" x="0px" y="0px" width="528" height="528" viewBox="0 0 48 48" enable-background="new 0 0 48 48" xml:space="preserve">
<polygon fill="#FFC107" points="11.143,15 13,28 35,28 36.857,15 "/>
<g>
	<path fill="#795548" d="M39,15v-2.5c0-0.828-0.672-1.5-1.5-1.5h-27C9.672,11,9,11.672,9,12.5V15H39z"/>
	<polygon fill="#77574F" points="13.143,29 15,42 33,42 34.857,29  "/>
	<circle fill="#77574F" cx="24" cy="28" r="5"/>
</g>
<g>
	<path fill="#4E342E" d="M20,28c0-0.732,0.211-1.409,0.555-2h-7.84l0.714,5h7.951C20.541,30.267,20,29.201,20,28z"/>
	<path fill="#4E342E" d="M27.445,26C27.789,26.591,28,27.268,28,28c0,1.201-0.541,2.267-1.38,3h7.951l0.714-5H27.445z"/>
	<polygon fill="#4E342E" points="36,6 12,6 11,11 37,11  "/>
</g>
<path fill="#5D4037" d="M24,21c3.866,0,7,3.134,7,7s-3.134,7-7,7s-7-3.134-7-7S20.134,21,24,21 M24,20c-4.411,0-8,3.589-8,8  s3.589,8,8,8s8-3.589,8-8S28.411,20,24,20L24,20z"/>
<path fill="#FFF3E0" d="M24,21c-3.866,0-7,3.134-7,7s3.134,7,7,7s7-3.134,7-7S27.866,21,24,21z M24,32c-2.209,0-4-1.791-4-4  s1.791-4,4-4s4,1.791,4,4S26.209,32,24,32z"/>
</svg>