<?xml version="1.0" encoding="iso-8859-1"?><!-- Generator: Adobe Illustrator 19.1.1, SVG Export Plug-In . SVG Version: 6.00 Build 0)  --><svg xmlns="http://www.w3.org/2000/svg" xmlns:xlink="http://www.w3.org/1999/xlink" version="1.1" id="Layer_1" x="0px" y="0px" viewBox="0 0 48 48" enable-background="new 0 0 48 48" xml:space="preserve" width="528" height="528">
<path fill="#FFECB3" d="M32,10h-0.05c-0.232-1.141-1.24-2-2.45-2c-0.187,0-0.368,0.024-0.544,0.063C28.749,6.892,27.731,6,26.5,6  c-0.565,0-1.081,0.195-1.5,0.511C24.581,6.195,24.065,6,23.5,6c-1.231,0-2.249,0.892-2.456,2.063C20.868,8.024,20.687,8,20.5,8  c-1.209,0-2.218,0.859-2.45,2H18c0,9.414-11,6.675-11,20.5C7,36.851,15.059,42,25,42s18-5.149,18-11.5C43,16.675,32,19.414,32,10z"/>
<g>
	<path fill="#FFE082" d="M38.703,19.625C39.494,21.348,40,23.543,40,26.5C40,32.851,31.941,38,22,38   c-5.905,0-11.13-1.825-14.413-4.632C9.585,38.329,16.612,42,25,42c9.941,0,18-5.149,18-11.5C43,24.604,40.998,21.723,38.703,19.625   z"/>
</g>
<g>
	
		<line fill="none" stroke="#FFD54F" stroke-width="2" stroke-linecap="round" stroke-miterlimit="10" x1="25" y1="7" x2="25" y2="21"/>
	<path fill="none" stroke="#FFD54F" stroke-width="2" stroke-linecap="round" stroke-miterlimit="10" d="M22,8c0,9.331-3,12-3,12"/>
	<path fill="none" stroke="#FFD54F" stroke-width="2" stroke-linecap="round" stroke-miterlimit="10" d="M28,8c0,9.331,3,12,3,12"/>
	<path fill="none" stroke="#FFD54F" stroke-width="2" stroke-linecap="round" stroke-miterlimit="10" d="M19,10c0,0,0.357,4.191-4,8   "/>
	<path fill="none" stroke="#FFD54F" stroke-width="2" stroke-linecap="round" stroke-miterlimit="10" d="M31,10c0,0-0.406,4.438,4,8   "/>
</g>
</svg>