<?xml version="1.0" encoding="utf-8"?><!-- Generator: Adobe Illustrator 15.0.0, SVG Export Plug-In . SVG Version: 6.00 Build 0)  --><!DOCTYPE svg PUBLIC "-//W3C//DTD SVG 1.1//EN" "http://www.w3.org/Graphics/SVG/1.1/DTD/svg11.dtd"><svg xmlns="http://www.w3.org/2000/svg" xmlns:xlink="http://www.w3.org/1999/xlink" version="1.1" x="0px" y="0px" width="528" height="528" viewBox="0 0 48 48" enable-background="new 0 0 48 48" xml:space="preserve">
<path fill="#FFB300" d="M24,9C13.834,9,4,14.668,4,24c0,9.333,9.834,15,20,15s20-5.667,20-15C44,14.668,34.166,9,24,9z M24,27.5  c-2.892,0-5.688-1.605-5.688-4.25S21.108,19,24,19s5.688,1.605,5.688,4.25S26.892,27.5,24,27.5z"/>
<path fill="#4C2114" d="M4.017,23.496c0.085,0.918,0.381,1.745,1.142,2.098c0.658,0.307,1.287-0.033,1.882-0.179  c0.728-0.179,1.433,0.254,1.929,0.743c0.735,0.726,0.831,1.64,1.228,2.548c0.396,0.904,0.848,1.603,1.596,2.254  c1.317,1.147,3.296,1.735,4.669,0.465c0.612-0.567,1.54-0.638,2.361-0.592c1.343,0.075,2.235,1.037,3.242,1.793  c1.313,0.985,2.326,1.923,4.052,1.959c2.089,0.044,3.79-1.371,4.865-3.034c0.555-0.858,1.13-2.844,2.226-3.09  c0.932-0.209,1.824,0.931,1.959,1.744c0.176,1.064,0.155,2.565,1.499,2.798c0.876,0.152,1.411-0.771,1.698-1.458  c0.419-1.001,0.838-1.884,0.887-2.975c0.037-0.842,0.165-1.815,0.658-2.528c0.183-0.265,0.525-0.588,0.885-0.542  c0.325,0.042,0.487,0.394,0.823,0.459c0.805,0.156,3.054-1.837,1.729-6.965C40.989,12.072,32.615,8,24,8C13.834,8,4,13.668,4,23  C4,23.168,4.01,23.331,4.017,23.496z M24,13c3.559,0,7,1.855,7,4.5S27.559,22,24,22s-7-1.855-7-4.5S20.441,13,24,13z"/>
<g>
	<line fill="none" stroke="#8BC34A" stroke-width="2" stroke-linecap="round" x1="7.917" y1="18.583" x2="11.167" y2="17.999"/>
	<line fill="none" stroke="#8BC34A" stroke-width="2" stroke-linecap="round" x1="38.166" y1="17.249" x2="39.916" y2="19.666"/>
</g>
<g>
	<line fill="none" stroke="#4DD0E1" stroke-width="2" stroke-linecap="round" x1="31.417" y1="24.333" x2="29.583" y2="26.75"/>
	<line fill="none" stroke="#80DEEA" stroke-width="2" stroke-linecap="round" x1="15.25" y1="15.083" x2="15.083" y2="12.5"/>
</g>
<g>
	<line fill="none" stroke="#FFEB3B" stroke-width="2" stroke-linecap="round" x1="23.479" y1="11.374" x2="25.813" y2="9.624"/>
	<line fill="none" stroke="#FFEB3B" stroke-width="2" stroke-linecap="round" x1="11.5" y1="21.167" x2="9.833" y2="24"/>
	<line fill="none" stroke="#FFEB3B" stroke-width="2" stroke-linecap="round" x1="24.917" y1="27.25" x2="23.333" y2="29.833"/>
</g>
<g>
	<line fill="none" stroke="#FF4081" stroke-width="2" stroke-linecap="round" x1="15.5" y1="25" x2="17.583" y2="27.333"/>
	<line fill="none" stroke="#FF4081" stroke-width="2" stroke-linecap="round" x1="32.917" y1="15.417" x2="33.833" y2="12.833"/>
</g>
<line fill="none" stroke="#FFFFFF" stroke-width="2" stroke-linecap="round" x1="36.25" y1="23.75" x2="36.083" y2="27.167"/>
</svg>