<?xml version="1.0" encoding="utf-8"?><!-- Generator: Adobe Illustrator 15.0.0, SVG Export Plug-In . SVG Version: 6.00 Build 0)  --><!DOCTYPE svg PUBLIC "-//W3C//DTD SVG 1.1//EN" "http://www.w3.org/Graphics/SVG/1.1/DTD/svg11.dtd"><svg xmlns="http://www.w3.org/2000/svg" xmlns:xlink="http://www.w3.org/1999/xlink" version="1.1" x="0px" y="0px" width="528" height="528" viewBox="0 0 48 48" enable-background="new 0 0 48 48" xml:space="preserve">
<path fill="#00BCD4" d="M27,16c-9,0-16,7-16,7l-3,2.003l3,2.148C15.026,30.021,20.018,34,27,34c7,0,17-7,17-10S34,16,27,16z"/>
<path fill="#4DD0E1" d="M31.572,16.572C30.563,18.82,30,21.375,30,24c0,3.217,0.922,6.321,2.4,8.935C37.547,31.156,44,26.833,44,24  S37,17.734,31.572,16.572z"/>
<circle fill="#FFFFFF" cx="35" cy="22" r="2"/>
<circle fill="#0277BD" cx="35" cy="22" r="1"/>
<g>
	<path fill="#006064" d="M27,16c1.436,0,2.997,0.213,4.572,0.572C31.48,16.081,30.805,12.767,29,11c-2.438,0.125-11.451,3.45-14,6   c0.584,0.876,0.983,1.564,1.276,2.124C19.091,17.508,22.824,16,27,16z"/>
	<path fill="#006064" d="M4,17c1,1,2,5.674,2,8c0,2.313-1,7-2,8c3-1,6.2-4.268,6.969-5.871c0.01,0.008,0.021,0.016,0.031,0.022   l-2-2.148L11,23C11,23,9,19,4,17z"/>
	<path fill="#006064" d="M29.209,36.962c-4.121,0.157-4.86-0.171-6.365-0.464c0.944-1.821,6.453-6.938,7.46-6.418l-0.089,0.471   C31.221,31.072,30.152,35.14,29.209,36.962z"/>
</g>
<path fill="#0097A7" d="M30,24c0-2.625,0.563-5.18,1.572-7.428c-0.732-0.189-1.965-0.357-1.965-0.357C28.552,18.7,28,21.313,28,24  c0,3.306,0.814,6.61,2.39,9.523c0.646-0.179,1.38-0.332,2.011-0.589C30.922,30.321,30,27.217,30,24z"/>
</svg>