<?xml version="1.0" encoding="utf-8"?><!-- Generator: Adobe Illustrator 15.0.0, SVG Export Plug-In . SVG Version: 6.00 Build 0)  --><!DOCTYPE svg PUBLIC "-//W3C//DTD SVG 1.1//EN" "http://www.w3.org/Graphics/SVG/1.1/DTD/svg11.dtd"><svg xmlns="http://www.w3.org/2000/svg" xmlns:xlink="http://www.w3.org/1999/xlink" version="1.1" x="0px" y="0px" width="528" height="528" viewBox="0 0 48 48" enable-background="new 0 0 48 48" xml:space="preserve">
<g>
	<rect x="22.02" y="4" fill="#FFC107" width="3.996" height="25"/>
	
		<rect x="17.557" y="5.113" transform="matrix(0.9973 -0.0733 0.0733 0.9973 -1.2388 1.4812)" fill="#FFC107" width="3.996" height="25"/>
	
		<rect x="13.338" y="8.161" transform="matrix(0.9876 -0.1571 0.1571 0.9876 -3.0553 2.6661)" fill="#FFC107" width="3.997" height="24.999"/>
	
		<rect x="26.923" y="6.113" transform="matrix(-0.9973 -0.0733 0.0733 -0.9973 56.399 39.2973)" fill="#FFC107" width="3.995" height="25"/>
	
		<rect x="31.076" y="6.841" transform="matrix(-0.9876 -0.1571 0.1571 -0.9876 62.6973 43.6386)" fill="#FFC107" width="3.996" height="24.999"/>
	
		<rect x="8.892" y="9.844" transform="matrix(0.9717 -0.2361 0.2361 0.9717 -4.9665 3.2021)" fill="#FFC107" width="3.996" height="24.998"/>
	
		<rect x="35.865" y="11.158" transform="matrix(0.9848 0.1737 -0.1737 0.9848 4.6849 -6.2174)" fill="#FFC107" width="3.997" height="24.999"/>
</g>
<g>
	<rect x="19.023" y="10" transform="matrix(0.997 -0.077 0.077 0.997 -1.6698 1.6851)" fill="#FFEE58" width="3.996" height="25"/>
	
		<rect x="24.085" y="10.895" transform="matrix(0.9964 0.0846 -0.0846 0.9964 2.072 -2.1221)" fill="#FFEE58" width="3.995" height="25"/>
	<polygon fill="#FFEE58" points="31.556,38.186 27.695,37.152 34.142,13 38.003,14.033  "/>
	
		<rect x="13.87" y="14.094" transform="matrix(-0.966 0.2586 -0.2586 -0.966 38.0715 48.1782)" fill="#FFEE58" width="3.996" height="24.998"/>
</g>
<path fill="#F44336" d="M35.826,18c-0.953,5.673-5.87,10-11.809,10s-10.855-4.327-11.809-10H7.035l4.995,26c0,0,6.993-1,11.988-1  s11.987,1,11.987,1l4.996-26H35.826z"/>
<g>
	<path fill="#C62828" d="M40.425,21l0.576-3h-5.175c-0.177,1.053-0.491,2.059-0.923,3H40.425z"/>
	<path fill="#C62828" d="M13.132,21c-0.431-0.941-0.746-1.947-0.923-3H7.035l0.576,3H13.132z"/>
	<path fill="#C62828" d="M35.82,18C34.866,23.673,29.944,28,24,28s-10.866-4.327-11.82-10h-3.03C10.132,25.327,16.409,31,24,31   c7.592,0,13.868-5.673,14.851-13H35.82z"/>
</g>
</svg>