<?xml version="1.0" encoding="utf-8"?><!-- Generator: Adobe Illustrator 15.0.0, SVG Export Plug-In . SVG Version: 6.00 Build 0)  --><!DOCTYPE svg PUBLIC "-//W3C//DTD SVG 1.1//EN" "http://www.w3.org/Graphics/SVG/1.1/DTD/svg11.dtd"><svg xmlns="http://www.w3.org/2000/svg" xmlns:xlink="http://www.w3.org/1999/xlink" version="1.1" x="0px" y="0px" width="528" height="528" viewBox="0 0 48 48" enable-background="new 0 0 48 48" xml:space="preserve">
<path fill="#FFC107" d="M25.987,37.941c-4.389,4.351-10.071,5.771-14.461,1.421L8.66,36.519c-4.387-4.352-2.954-9.985,1.435-14.337  l11.919-11.819c4.39-4.354,9.594-6.246,13.981-1.896l3.345,3.315c4.388,4.352,2.955,9.986-1.434,14.34L25.987,37.941z"/>
<g>
	<path fill="#689F38" d="M29.17,14.054c1.677-1.588,3.926-5.305,3.174-6.709c-0.672-1.254-1.493-1.996-2.747-0.557   c-0.588,0.676-0.948,1.508-1.087,2.369c-0.219,1.341-0.382,1.824-1.682,1.691c-1.262-0.129-2.314-0.278-2.194,1.279   c0.126,1.619,0.511,2.195-1.023,3.213c-1.608,1.066-3.648,1.269-5.229,2.419c-0.767,0.56-1.044,0.863-0.87,1.821   c0.139,0.783,0.842,2.07,0.313,2.787c-0.859,1.167-1.218-0.721-1.696-1.259c-1.212-1.362-1.536,1.162-1.476,1.981   c0.037,0.513,0.255,1.432-0.285,1.755c-0.591,0.35-0.598-0.138-1.084-0.419c-0.452-0.263-1.388-0.553-1.817-0.112   c-0.527,0.541,0.157,1.728,0.266,2.376c0.088,0.523,0.211,1.462-0.242,1.863c-0.504,0.443-1.222-0.014-1.844-0.162   c-1.28-0.302-3.366,0.322-3.605,1.827c-0.154,0.964,0.115,1.246,1.025,1.696c2.596,1.291,7.064-0.358,8.51-1.812L29.17,14.054z"/>
	<path fill="#689F38" d="M18.83,33.946c-1.677,1.588-3.926,5.305-3.174,6.709c0.672,1.254,1.493,1.996,2.747,0.557   c0.588-0.676,0.948-1.508,1.087-2.369c0.219-1.341,0.382-1.824,1.682-1.691c1.262,0.129,2.314,0.278,2.194-1.279   c-0.126-1.619-0.511-2.195,1.023-3.213c1.608-1.066,3.648-1.269,5.229-2.419c0.767-0.56,1.044-0.863,0.87-1.821   c-0.139-0.783-0.842-2.07-0.313-2.787c0.859-1.167,1.218,0.721,1.696,1.259c1.212,1.362,1.536-1.162,1.476-1.981   c-0.037-0.513-0.255-1.432,0.285-1.755c0.591-0.35,0.598,0.138,1.084,0.419c0.452,0.263,1.388,0.553,1.817,0.112   c0.527-0.541-0.157-1.728-0.266-2.376c-0.088-0.523-0.211-1.462,0.242-1.863c0.504-0.443,1.222,0.014,1.844,0.162   c1.28,0.302,3.366-0.322,3.605-1.827c0.154-0.964-0.115-1.246-1.025-1.696c-2.596-1.291-7.064,0.358-8.51,1.812L18.83,33.946z"/>
</g>
<path fill="#D32F2F" d="M10.263,42.001c-1.091,0-2.182-0.416-3.014-1.25c-1.665-1.664-1.665-4.364,0-6.028L34.723,7.249  c1.663-1.665,4.365-1.665,6.028,0c1.665,1.664,1.665,4.365,0,6.029L13.277,40.751C12.445,41.585,11.354,42.001,10.263,42.001z"/>
<path fill="none" stroke="#FFEB3B" stroke-width="2" stroke-linecap="round" d="M13,35c1.414-5.657,5.658,0.001,7.072-7.07  s7.778-2.122,8.485-8.485c0.707-6.364,7.778-2.121,7.778-7.778"/>
</svg>