<?xml version="1.0" encoding="utf-8"?><!-- Generator: Adobe Illustrator 15.0.0, SVG Export Plug-In . SVG Version: 6.00 Build 0)  --><!DOCTYPE svg PUBLIC "-//W3C//DTD SVG 1.1//EN" "http://www.w3.org/Graphics/SVG/1.1/DTD/svg11.dtd"><svg xmlns="http://www.w3.org/2000/svg" xmlns:xlink="http://www.w3.org/1999/xlink" version="1.1" x="0px" y="0px" width="528" height="528" viewBox="0 0 48 48" enable-background="new 0 0 48 48" xml:space="preserve">
<path fill="none" stroke="#7986CB" stroke-width="2" stroke-linecap="square" stroke-miterlimit="10" d="M39.301,8.698L41,6.999  c0,0-21.75,21.75-23.874,23.875C15,32.999,15,32.999,15.001,36.999C15,39.208,13.209,41,11.001,41C8.791,41,7,39.209,7,36.999  c0-1.381,0.7-2.597,1.764-3.315c0.639-0.432,1.408-0.685,2.237-0.685"/>
<path fill="#FF5722" d="M34.561,13.345c-2.52-2.52-3.173-5.082-3.201-5.19l2.96-0.673c0.004,0.019,0.508,1.867,2.373,3.732  c1.896,1.896,3.892,2.512,3.911,2.518l-0.78,2.93C39.713,16.629,37.057,15.842,34.561,13.345z"/>
<g>
	<path fill="#6D4C41" d="M36.021,20.463c-0.391,0.391-1.023,0.392-1.414,0l-7.071-7.071c-0.391-0.391-0.39-1.023,0-1.414   l2.121-2.121c0.391-0.39,1.023-0.391,1.415,0l7.07,7.071c0.391,0.391,0.391,1.024,0,1.414L36.021,20.463z"/>
	<path fill="#6D4C41" d="M27.536,28.948c-0.39,0.391-1.023,0.391-1.414,0l-7.071-7.07c-0.391-0.392-0.39-1.024,0-1.415l2.121-2.121   c0.391-0.39,1.023-0.391,1.414,0l7.071,7.071c0.392,0.391,0.391,1.023,0,1.414L27.536,28.948z"/>
</g>
<path fill="#FFC107" d="M17.582,30.308c-2.568-2.567-3.244-5.141-3.313-5.425l-0.479-1.987l3.959-0.905l0.477,1.97  c0.028,0.102,0.52,1.785,2.219,3.484c1.796,1.797,3.661,2.362,3.679,2.367l1.967,0.558l-1.065,3.919l-1.966-0.558  C22.766,33.647,20.118,32.844,17.582,30.308z"/>
<path fill="#8BC34A" d="M26.066,21.822c-2.567-2.567-3.244-5.14-3.313-5.424l-0.479-1.987l3.96-0.906l0.476,1.97  c0.028,0.103,0.52,1.786,2.219,3.485c1.797,1.797,3.661,2.362,3.679,2.366l1.968,0.559l-1.065,3.919l-1.967-0.557  C31.249,25.162,28.604,24.358,26.066,21.822z"/>
</svg>