<?xml version="1.0" encoding="UTF-8" standalone="no"?>
<!-- Created with Inkscape (http://www.inkscape.org/) -->

<svg
   version="1.1"
   id="svg119"
   width="1024"
   height="1024"
   viewBox="0 0 1024 1024"
   sodipodi:docname="logo.svg"
   inkscape:version="1.2 (dc2aedaf03, 2022-05-15)"
   xmlns:inkscape="http://www.inkscape.org/namespaces/inkscape"
   xmlns:sodipodi="http://sodipodi.sourceforge.net/DTD/sodipodi-0.dtd"
   xmlns="http://www.w3.org/2000/svg"
   xmlns:svg="http://www.w3.org/2000/svg">
  <defs
     id="defs123" />
  <sodipodi:namedview
     id="namedview121"
     pagecolor="#ffffff"
     bordercolor="#000000"
     borderopacity="0.25"
     inkscape:showpageshadow="2"
     inkscape:pageopacity="0.0"
     inkscape:pagecheckerboard="0"
     inkscape:deskcolor="#d1d1d1"
     showgrid="false"
     inkscape:zoom="0.70917838"
     inkscape:cx="597.16992"
     inkscape:cy="541.47167"
     inkscape:window-width="2560"
     inkscape:window-height="1334"
     inkscape:window-x="-11"
     inkscape:window-y="-11"
     inkscape:window-maximized="1"
     inkscape:current-layer="g125" />
  <g
     inkscape:groupmode="layer"
     inkscape:label="Image"
     id="g125">
    <circle
       style="fill:#bae6fd;fill-opacity:1"
       id="path441"
       cx="516.98541"
       cy="519.97662"
       r="467.13144" />
    <path
       style="fill:#1c1917;fill-opacity:1;stroke-width:1.52135"
       d="m 502.10462,954.0645 c -29.11343,-3.91174 -61.10722,-28.75246 -72.97889,-56.66249 -9.89465,-23.26208 -10.72088,-67.56407 -1.27536,-68.38351 37.3322,-6.56222 70.65557,-24.26942 99.79334,-43.74587 16.37439,-10.89942 36.19507,-30.16596 45.87055,-44.58811 6.30132,-9.39268 7.30166,-7.72528 21.22636,35.38104 28.75702,81.30883 -23.09305,182.00544 -92.636,177.99894 z M 414.06901,643.08146 c -13.56386,-54.6489 -30.91093,-86.85002 -47.58711,-88.19321 -65.47147,-5.27345 -90.66095,-21.20837 -115.50913,-73.07133 -4.61764,-9.63792 -11.62487,-23.76624 -15.5716,-31.39626 -8.01847,-15.5017 -25.84899,-52.2914 -25.84899,-53.33418 0,-0.37049 -3.62199,-7.41438 -8.04888,-15.65308 -7.90944,-14.71996 -17.97079,-38.76874 -21.13346,-44.37291 -1.7346,-3.07366 36.90107,-20.78944 37.71367,-19.35905 0.41724,0.73445 13.19942,26.64802 15.16251,31.229 0.68835,1.60632 4.50146,9.16332 8.47357,16.79334 3.97212,7.63002 9.71374,19.12982 12.75918,25.5551 4.94822,10.43978 13.05802,26.70727 24.02383,48.1896 14.01197,27.44981 16.63754,32.85934 16.63754,34.27873 0,1.90984 6.74555,14.23395 9.93158,18.14499 2.19107,2.68963 5.11803,6.48855 16.1129,1.81932 12.56152,-5.33455 11.16571,-11.26026 5.84681,-19.29649 -1.63132,-2.46473 -3.4658,-6.07895 -4.07665,-8.03161 -0.61083,-1.95265 -5.58257,-12.09299 -11.04829,-22.53407 -5.46573,-10.44108 -13.36894,-25.88366 -17.56267,-34.31684 -16.07003,-32.31518 -18.5982,-37.30311 -19.98433,-39.42785 -0.78595,-1.20474 -1.88862,-3.17614 -2.4504,-4.38088 -1.96988,-4.2245 -11.34428,-22.78495 -19.46314,-38.53519 -8.19641,-15.90067 -6.16115,-12.75452 -8.52241,-18.60442 -0.66034,-1.63597 26.93189,-12.19957 27.49062,-11.78009 0.93227,0.69992 2.88258,5.2457 4.52779,8.40841 8.40689,16.16122 16.02826,31.31558 16.02826,31.87064 0,0.34357 4.63602,9.59281 10.30226,20.55385 5.66624,10.96105 10.30225,20.34284 10.30225,20.8484 0,0.99826 2.53515,6.11765 14.6516,29.58684 4.35381,8.43318 8.85067,17.30445 9.99301,19.71393 1.14236,2.40948 5.50076,10.62362 9.68534,18.25364 4.18457,7.63002 8.43815,17.05747 10.80986,20.07786 9.3227,11.87251 12.99463,7.74231 20.1523,4.86534 11.35405,-4.56366 5.95177,-14.35466 1.27631,-23.24739 -2.61519,-4.97409 -4.75489,-9.37119 -4.75489,-9.77135 0,-0.65956 -12.32628,-24.76367 -26.11409,-51.06625 -22.27684,-42.49686 -27.77463,-53.14545 -27.77463,-53.79626 0,-0.40877 -5.34924,-11.00685 -11.88721,-23.55128 -14.07615,-27.00793 -16.02129,-21.13293 -13.01899,-24.74488 6.38471,-7.68119 19.10905,-9.65096 28.68087,-12.28077 0.66297,-0.18215 14.4704,28.91556 18.39338,36.97777 1.56323,3.21264 5.46777,10.76965 8.67673,16.79335 3.20898,6.0237 7.84618,15.55405 10.3049,21.17858 2.45872,5.62452 8.89906,18.76714 14.31185,29.20582 5.4128,10.43867 12.55321,24.56503 15.86757,31.39189 21.09588,43.45273 24.25476,42.45681 37.32921,37.15879 15.57271,-6.31036 11.57789,-6.96106 -1.32994,-31.6242 -27.43153,-52.41372 -31.25018,-59.8817 -31.25018,-61.11477 0,-0.7308 -6.64379,-12.86155 -14.17883,-27.27011 -10.13647,-19.38304 -19.46683,-42.74075 -30.63284,-61.13861 -1.35432,-2.23147 43.18034,-20.66388 41.14321,-22.3297 -33.62744,-27.49802 -47.41974,8.43167 -58.53739,17.31514 -10.64928,8.50922 -95.41715,14.50085 -92.37441,4.88149 9.84673,-31.12951 38.4271,-78.81581 70.02138,-107.73226 41.05813,-37.57817 92.7266,-68.349558 147.49351,-78.273009 74.67962,-13.531522 162.05172,-11.832105 225.78345,29.379719 77.03164,49.81215 146.04719,111.85439 144.35243,234.30428 -0.35242,25.46335 -4.41206,43.30264 -13.2712,70.06882 -5.10009,15.40917 -20.04534,45.11938 -27.74445,55.15451 -2.92838,3.81688 -5.32436,7.51631 -5.32436,8.22097 -29.45142,42.53011 -71.00327,73.54774 -105.39999,100.46113 -13.07594,10.22594 -31.26338,25.67361 -40.41654,34.32816 -39.1442,32.75453 -62.3469,88.99791 -109.28005,120.19351 -3.80123,2.40382 -9.01641,6.18232 -11.58928,8.39667 -64.17167,47.65047 -89.68567,-39.05295 -102.55335,-95.37129 z m 47.15312,-65.98055 c 12.06647,-26.20223 41.86585,-65.79507 65.53735,-79.32957 37.22766,-38.99669 94.78704,-56.51702 116.30025,-101.92175 43.87181,-97.07694 -20.13314,-182.48113 -136.63105,-168.15467 -32.0782,3.94485 -59.68646,18.46327 -81.88308,37.02375 -5.40015,4.51553 -11.6751,9.68552 -14.03923,11.37644 -4.2984,3.07438 -4.2984,3.07438 6.33985,22.70311 11.03281,20.35669 21.29867,40.00968 39.15438,74.95716 5.74501,11.24425 11.38173,22.08691 12.52602,24.09481 2.7072,4.75029 9.59841,23.63574 11.86363,32.51243 3.52436,13.81084 1.25704,34.45946 -5.16892,47.07343 -6.37523,12.51437 -12.97259,23.98992 -16.79063,29.20582 -16.59514,22.67099 -19.33516,34.0626 -13.17159,54.76091 5.70407,19.15521 11.97047,25.31763 15.96302,15.69813 z"
       id="path287"
       sodipodi:nodetypes="csccscccssssssssssssssssssssssssssssssssssssssssssssssssssssaaassscccccccccssssssssssc"
       class="UnoptimicedTransforms" />
  </g>
</svg>
