<?xml version="1.0" encoding="utf-8"?><!-- Generator: Adobe Illustrator 15.0.0, SVG Export Plug-In . SVG Version: 6.00 Build 0)  --><!DOCTYPE svg PUBLIC "-//W3C//DTD SVG 1.1//EN" "http://www.w3.org/Graphics/SVG/1.1/DTD/svg11.dtd"><svg xmlns="http://www.w3.org/2000/svg" xmlns:xlink="http://www.w3.org/1999/xlink" version="1.1" x="0px" y="0px" width="528" height="528" viewBox="0 0 48 48" enable-background="new 0 0 48 48" xml:space="preserve">
<g>
	<line fill="none" stroke="#5D4037" stroke-width="2" x1="41" y1="12" x2="5" y2="12"/>
	<line fill="none" stroke="#5D4037" stroke-width="2" x1="40.984" y1="7" x2="4.984" y2="9"/>
</g>
<g>
	<path fill="#FFE082" d="M13.72,28.052c0.287-0.212,0.696-0.466,1.214-0.639c0.36-0.121,0.72-0.18,1.075-0.187   c0.022,0,0.044,0.002,0.066,0.002c0.945,0.002,1.854,0.398,2.631,1.176c0.425,0.426,0.84,0.577,1.212,0.59   c0.037,0,0.074-0.001,0.11-0.002c0.605-0.026,1.082-0.413,1.269-0.594c0.062-0.063,0.688-0.671,1.635-0.986   c0.357-0.119,0.713-0.178,1.065-0.186c0.03-0.001,0.061,0.002,0.092,0.003c0.939,0.007,1.843,0.4,2.617,1.175   c0.439,0.439,0.868,0.591,1.249,0.594c0.015,0,0.028-0.004,0.043-0.004c0.619-0.014,1.108-0.412,1.299-0.596   c0.596-0.596,1.572-1.132,2.661-1.166c0.041-0.002,0.081-0.004,0.124-0.003c0.854,0.004,1.771,0.322,2.623,1.175   c0.398,0.396,0.794,0.585,1.215,0.588c0.027,0,0.054,0.003,0.081,0.003c0.141-0.008,0.283-0.033,0.431-0.083   c0.495-0.165,0.855-0.505,0.859-0.509c0.068-0.068,0.694-0.676,1.641-0.991c0.356-0.119,0.713-0.178,1.064-0.186   c0.026-0.001,0.052,0.003,0.078,0.003c0.788,0.001,1.552,0.276,2.234,0.821c0.145-0.047,0.281-0.117,0.396-0.232   c0.391-0.391,0.391-1.023,0-1.414c-1.088-1.09-2.431-1.441-3.773-0.992c-0.946,0.315-1.572,0.923-1.641,0.991   c-0.004,0.004-0.364,0.344-0.859,0.509c-0.622,0.21-1.171,0.047-1.727-0.508c-1.984-1.987-4.326-1.088-5.408-0.006   c-0.311,0.3-1.414,1.182-2.591,0.006c-1.089-1.09-2.431-1.441-3.774-0.992c-0.947,0.315-1.573,0.924-1.635,0.986   c-0.311,0.299-1.413,1.185-2.591,0.006c-1.088-1.088-2.43-1.443-3.773-0.991c-0.946,0.315-1.572,0.923-1.641,0.991   c-0.388,0.388-0.388,1.014-0.003,1.405C13.413,27.935,13.563,28.006,13.72,28.052z"/>
	<path fill="#FFE082" d="M12.008,36.092c-0.001-0.031-0.004-0.063-0.003-0.095c0.008-0.352,0.066-0.707,0.185-1.063   c0.315-0.946,0.923-1.572,0.992-1.641c0.18-0.187,0.577-0.672,0.592-1.29c0-0.032-0.003-0.063-0.003-0.096   c-0.015-0.369-0.166-0.778-0.587-1.2c-0.85-0.85-1.168-1.763-1.174-2.616c-0.002-0.049,0-0.096,0.003-0.143   c0.038-1.085,0.574-2.059,1.171-2.655c0.18-0.186,0.576-0.671,0.591-1.289c0.001-0.033-0.003-0.065-0.003-0.098   c-0.016-0.369-0.167-0.778-0.587-1.199c-0.773-0.773-1.167-1.675-1.174-2.614c-0.001-0.033-0.004-0.065-0.003-0.097   c0.007-0.351,0.066-0.707,0.185-1.063c0.316-0.947,0.924-1.573,0.992-1.641c0.18-0.186,0.576-0.671,0.591-1.289   c0.001-0.033-0.003-0.065-0.003-0.098c-0.016-0.369-0.167-0.778-0.587-1.199c-0.773-0.773-1.167-1.675-1.173-2.615   c-0.001-0.031-0.004-0.062-0.003-0.092c0.007-0.352,0.066-0.708,0.185-1.065c0.174-0.522,0.431-0.932,0.643-1.22   c-0.046-0.153-0.116-0.3-0.237-0.421c-0.391-0.391-1.023-0.391-1.414,0c-0.068,0.068-0.676,0.694-0.992,1.641   c-0.448,1.345-0.096,2.685,0.992,3.772c1.179,1.18,0.294,2.282,0,2.585c-0.068,0.068-0.676,0.694-0.992,1.641   c-0.448,1.346-0.096,2.686,0.992,3.774c1.179,1.179,0.294,2.281,0,2.585c-1.088,1.088-1.986,3.428,0,5.414   c1.179,1.18,0.293,2.281-0.001,2.586c-0.068,0.068-0.676,0.694-0.992,1.641c-0.448,1.346-0.096,2.686,0.993,3.773   C11.378,38.902,11.634,39,11.89,39s0.512-0.098,0.708-0.293c0.115-0.115,0.185-0.252,0.232-0.396   C12.288,37.633,12.014,36.876,12.008,36.092z"/>
</g>
<g>
	<path fill="#FFC107" d="M27.931,31c-0.948,0-1.857-0.402-2.637-1.182c-1.181-1.18-2.283-0.295-2.592,0.006   c-1.083,1.082-3.421,1.982-5.409-0.006c-1.178-1.18-2.281-0.294-2.591,0.006c-0.395,0.382-1.027,0.377-1.411-0.015   c-0.385-0.392-0.385-1.018,0.003-1.405c0.068-0.068,0.694-0.676,1.641-0.991c1.343-0.452,2.685-0.097,3.773,0.991   c1.178,1.18,2.281,0.294,2.591-0.006c0.062-0.063,0.688-0.671,1.635-0.986c1.344-0.449,2.686-0.097,3.774,0.992   c1.177,1.177,2.28,0.294,2.591-0.006c1.082-1.082,3.424-1.98,5.408,0.006c0.556,0.554,1.104,0.718,1.727,0.508   c0.495-0.165,0.855-0.505,0.859-0.509c0.068-0.068,0.694-0.676,1.641-0.991c1.343-0.449,2.686-0.097,3.773,0.992   c0.391,0.391,0.391,1.023,0,1.414s-1.023,0.391-1.414,0c-0.556-0.556-1.104-0.719-1.727-0.509   c-0.495,0.165-0.856,0.505-0.859,0.508c-0.068,0.068-0.694,0.676-1.641,0.992c-1.347,0.447-2.686,0.097-3.773-0.991   c-1.181-1.18-2.281-0.293-2.592,0.006c-0.063,0.063-0.688,0.67-1.635,0.985C28.686,30.938,28.305,31,27.931,31z"/>
	<path fill="#FFC107" d="M10.19,34.934c0.315-0.946,0.923-1.572,0.992-1.641c0.18-0.187,0.576-0.672,0.592-1.29   c0-0.032-0.003-0.063-0.003-0.096c-0.015-0.369-0.166-0.778-0.587-1.2c-0.849-0.849-1.168-1.762-1.174-2.614   c-0.002-0.049,0-0.096,0.002-0.143c0.038-1.086,0.574-2.061,1.171-2.657c0.18-0.186,0.576-0.671,0.591-1.288   c0.001-0.033-0.003-0.065-0.003-0.099c-0.016-0.368-0.167-0.777-0.587-1.198c-0.773-0.773-1.167-1.674-1.174-2.613   c-0.001-0.033-0.004-0.065-0.003-0.098c0.007-0.352,0.066-0.708,0.185-1.064c0.316-0.947,0.924-1.573,0.992-1.641   c0.18-0.186,0.576-0.671,0.591-1.288c0.001-0.033-0.003-0.066-0.003-0.099c-0.016-0.369-0.167-0.778-0.587-1.199   c-0.773-0.773-1.167-1.674-1.173-2.613c-0.001-0.031-0.004-0.063-0.003-0.093c0.007-0.352,0.066-0.708,0.185-1.066   c0.174-0.522,0.431-0.932,0.643-1.219c-0.046-0.153-0.116-0.299-0.237-0.42c-0.391-0.391-1.023-0.391-1.414,0   c-0.068,0.068-0.676,0.694-0.992,1.641c-0.448,1.345-0.096,2.685,0.992,3.772c1.179,1.18,0.294,2.282,0,2.585   c-0.068,0.068-0.676,0.694-0.992,1.641c-0.448,1.346-0.096,2.686,0.992,3.774c1.179,1.179,0.294,2.281,0,2.585   c-1.088,1.088-1.986,3.428,0,5.414c1.179,1.18,0.293,2.281-0.001,2.586c-0.391,0.391-0.391,1.023,0,1.414   c0.195,0.195,0.452,0.293,0.708,0.293c0.102,0,0.201-0.027,0.299-0.059C10.188,34.939,10.189,34.937,10.19,34.934z"/>
	<path fill="#FFC107" d="M13.89,39c-0.256,0-0.512-0.098-0.707-0.293c-1.088-1.088-1.441-2.428-0.993-3.773   c0.315-0.946,0.923-1.572,0.992-1.641c0.294-0.305,1.18-1.406,0.001-2.586c-1.986-1.986-1.088-4.326,0-5.414   c0.294-0.304,1.179-1.406,0-2.585c-1.088-1.088-1.44-2.429-0.992-3.774c0.316-0.947,0.924-1.573,0.992-1.641   c0.294-0.304,1.179-1.406,0-2.585c-1.088-1.087-1.44-2.427-0.992-3.772c0.315-0.946,0.923-1.572,0.992-1.641   c0.391-0.391,1.023-0.391,1.414,0c0.389,0.389,0.391,1.019,0.004,1.41c-0.3,0.312-1.182,1.412-0.004,2.589   c1.088,1.088,1.44,2.428,0.992,3.774c-0.315,0.946-0.923,1.572-0.992,1.641c-0.294,0.304-1.18,1.407,0,2.587   c1.088,1.088,1.44,2.428,0.992,3.772c-0.315,0.947-0.923,1.572-0.992,1.641c-0.294,0.304-1.179,1.406,0,2.586   c1.088,1.088,1.44,2.428,0.991,3.773c-0.316,0.946-0.924,1.572-0.992,1.641c-0.294,0.304-1.179,1.406,0.001,2.586   c0.391,0.391,0.391,1.023,0,1.414C14.402,38.902,14.146,39,13.89,39z"/>
	<path fill="#FFC107" d="M38.708,24.403c-0.391-0.39-1.023-0.39-1.414,0c-0.004,0.003-0.364,0.344-0.859,0.509   c-0.623,0.209-1.171,0.047-1.727-0.508c-1.984-1.986-4.325-1.088-5.408-0.005c-0.311,0.299-1.412,1.182-2.591,0.005   c-1.09-1.089-2.43-1.441-3.774-0.992c-0.947,0.316-1.573,0.924-1.635,0.986c-0.31,0.3-1.413,1.185-2.591,0.006   c-1.088-1.088-2.429-1.441-3.773-0.992c-0.238,0.079-0.455,0.177-0.648,0.28v2.005c0.193-0.104,0.406-0.203,0.647-0.284   c0.36-0.121,0.719-0.18,1.074-0.187c0.024,0,0.049,0.002,0.073,0.003c0.943,0.003,1.85,0.398,2.626,1.175   c0.425,0.426,0.839,0.576,1.211,0.589c0.025,0,0.05,0.003,0.075,0.002c0.623-0.012,1.114-0.413,1.305-0.597   c0.062-0.063,0.688-0.671,1.635-0.986c0.358-0.12,0.716-0.179,1.069-0.186c0.027,0,0.055,0.002,0.082,0.003   c0.942,0.004,1.847,0.398,2.623,1.175c0.44,0.439,0.87,0.591,1.252,0.594c0.008,0,0.017-0.002,0.025-0.003   c0.627-0.007,1.122-0.411,1.313-0.597c0.596-0.596,1.573-1.133,2.663-1.167c0.041-0.002,0.081-0.003,0.124-0.002   c0.854,0.004,1.771,0.323,2.621,1.175c0.396,0.395,0.789,0.582,1.206,0.587c0.031,0,0.062,0.004,0.093,0.003   c0.14-0.008,0.281-0.032,0.428-0.082c0.495-0.165,0.855-0.505,0.859-0.509c0.068-0.068,0.694-0.676,1.641-0.991   c0.003-0.001,0.006-0.001,0.009-0.002C39.052,25.065,38.981,24.676,38.708,24.403z"/>
</g>
<path fill="#00BCD4" d="M5,29c0,7.882,5.073,10.563,12.126,13h11.748C35.927,39.563,41,36.882,41,29H5z"/>
<path fill="#0097A7" d="M40.102,34C40.684,32.604,41,30.965,41,29.001H5C5,30.965,5.316,32.604,5.898,34H40.102z"/>
</svg>