<?xml version="1.0" encoding="utf-8"?><!-- Generator: Adobe Illustrator 15.0.0, SVG Export Plug-In . SVG Version: 6.00 Build 0)  --><!DOCTYPE svg PUBLIC "-//W3C//DTD SVG 1.1//EN" "http://www.w3.org/Graphics/SVG/1.1/DTD/svg11.dtd"><svg xmlns="http://www.w3.org/2000/svg" xmlns:xlink="http://www.w3.org/1999/xlink" version="1.1" x="0px" y="0px" width="528" height="528" viewBox="0 0 48 48" enable-background="new 0 0 48 48" xml:space="preserve">
<g>
	<ellipse fill="#EF6C00" cx="24" cy="31.5" rx="19" ry="6.5"/>
	<ellipse fill="#EF6C00" cx="24" cy="25.5" rx="19" ry="6.5"/>
	<ellipse fill="#EF6C00" cx="24" cy="19.5" rx="19" ry="6.5"/>
	<ellipse fill="#EF6C00" cx="24" cy="13.5" rx="19" ry="6.5"/>
</g>
<g>
	<path fill="#FFCC80" d="M24,38c-10,0-18.178-2.645-18.926-6H5c0,6,9.06,9,19,9s19-3,19-9h-0.074C42.178,35.355,34,38,24,38z"/>
	<path fill="#FFCC80" d="M24,32c-10,0-18.178-2.645-18.926-6H5c0,6,9.06,9,19,9s19-3,19-9h-0.074C42.178,29.355,34,32,24,32z"/>
	<path fill="#FFCC80" d="M24,26c-10,0-18.178-2.645-18.926-6H5c0,6,9.06,9,19,9s19-3,19-9h-0.074C42.178,23.355,34,26,24,26z"/>
	<path fill="#FFCC80" d="M24,20c-10,0-18.178-2.645-18.926-6H5c0,6,9.06,9,19,9s19-3,19-9h-0.074C42.178,17.355,34,20,24,20z"/>
</g>
<g>
	<ellipse fill="#BF360C" cx="24" cy="13.5" rx="12" ry="3.5"/>
	<path fill="#BF360C" d="M31,32.5c0,1.381-1.119,2.5-2.5,2.5l0,0c-1.381,0-2.5-1.119-2.5-2.5V16.25c0-1.381,5-1.381,5,0V32.5z"/>
	<path fill="#BF360C" d="M22,23.161c0,1.381-1.119,2.5-2.5,2.5l0,0c-1.381,0-2.5-1.119-2.5-2.5v-7.125c0-1.381,5-1.381,5,0V23.161z"/>
	<path fill="#BF360C" d="M26,13c0,1.104-0.896,2-2,2l0,0c-1.104,0-2-0.896-2-2v6c0-1.104,0.896-2,2-2l0,0c1.104,0,2,0.896,2,2V13z"/>
	<path fill="#BF360C" d="M31,12v6c0-1.104,0.9-2,1.396-2C32.396,16,31,13.104,31,12z"/>
	<path fill="#BF360C" d="M17,12v6c0-1.104-0.9-2-1.396-2C15.604,16,17,13.104,17,12z"/>
</g>
</svg>