<?xml version="1.0" encoding="utf-8"?><!-- Generator: Adobe Illustrator 19.1.1, SVG Export Plug-In . SVG Version: 6.00 Build 0)  --><svg xmlns="http://www.w3.org/2000/svg" xmlns:xlink="http://www.w3.org/1999/xlink" version="1.1" x="0px" y="0px" viewBox="0 0 48 48" enable-background="new 0 0 48 48" xml:space="preserve" width="528" height="528">
<g>
	<path fill="#D50000" d="M45.9,22.9c0-0.1-0.1-0.2-0.1-0.3c0.6-0.8,0.7-1.9,0.3-2.8c-0.5-1.2-1.6-1.9-2.8-1.8   c0.4-1.1,0.2-2.4-0.8-3.3c-0.9-0.8-2.2-1-3.2-0.6c0-1.1-0.7-2.2-1.8-2.7c-1.1-0.5-2.3-0.3-3.1,0.4c-0.3-1-1.2-1.9-2.3-2.1   c-1.1-0.2-2.2,0.2-2.9,1c-0.5-0.9-1.4-1.6-2.5-1.7c-1.1-0.1-2.1,0.5-2.7,1.3c-0.6-0.9-1.6-1.4-2.7-1.3s-2.1,0.7-2.5,1.6   c-0.7-0.8-1.8-1.2-2.9-1c-1.1,0.2-2,1.1-2.3,2.1c-0.8-0.7-2-0.9-3.1-0.4c-1.1,0.5-1.8,1.5-1.8,2.7c-1.1-0.5-2.3-0.3-3.2,0.5   c-0.9,0.8-1.2,2.1-0.8,3.2c0,0,0,0,0,0c-1.2,0-2.3,0.7-2.8,1.8c-0.4,0.9-0.3,2,0.2,2.8c0,0.2-0.1,0.3-0.1,0.5   c-0.1,0.4-0.1,0.8,0,1.2c-0.6,1.1-0.5,2.4,0.4,3.3c0.9,1.1,2.4,1.3,3.6,0.7c0.1,1.2,0.9,2.2,2.1,2.6h0c1.1,0.3,2.2,0.1,3-0.7   c0.4,1,1.2,1.7,2.3,1.9c1.1,0.2,2.1-0.2,2.8-1c0.4,0.9,1.3,1.6,2.4,1.7c0.1,0,0.2,0,0.3,0c1,0,1.9-0.5,2.5-1.3   c0.1,0.2,0.3,0.4,0.5,0.6c0.6,0.6,1.3,0.9,2.1,0.9c0,0,0,0,0.1,0c0,0,0,0,0.1,0c0.8,0,1.6-0.3,2.1-0.9c0.2-0.2,0.3-0.4,0.4-0.6   c0.6,0.8,1.6,1.4,2.7,1.3c1.1-0.1,2-0.8,2.4-1.7c0.7,0.8,1.7,1.2,2.8,1c1.1-0.2,2-0.9,2.3-1.9c0.8,0.7,1.9,1,3,0.7   c1.2-0.4,2-1.4,2.1-2.5c1.2,0.6,2.7,0.4,3.6-0.6v0c0.9-1,1-2.4,0.4-3.5C46,23.8,46,23.4,45.9,22.9z"/>
	<polygon fill="#D50000" points="29.3,32.7 29.3,32.7 29.3,32.7  "/>
</g>
<path fill="#FFC107" d="M36,25.9c-5,3.8-12,1-12,1s-7.1,2.8-12-1c-7,3.7-12-3-12-3s2.9,9.8,7,14c0,0,8,3,17,3s17-3,17-3  c4.1-4.2,7-14,7-14S43.1,29.7,36,25.9z"/>
<path fill="#FFB300" d="M24,26.9l2,1l-2,12l-2-12L24,26.9z M10,25.9l4,13v-12l-2-1L10,25.9z M36,25.9l-2,1v12l4-13L36,25.9z"/>
<path fill="#FF8F00" d="M47.4,22c-0.5-0.2-1.1,0.1-1.3,0.6c0,0-0.8,2.1-3.1,3c-1.8,0.7-4,0.5-6.6-0.6l-0.5-0.2l-0.5,0.3  c-5,3.5-10.9,1-11.1,0.9L24,25.8l0,0l0,0L23.6,26c-0.1,0-6,2.6-11.1-0.9L12,24.8L11.6,25C9,26.1,6.8,26.3,5,25.6  c-2.2-0.9-3.1-3-3.1-3c-0.2-0.5-0.8-0.8-1.3-0.6c-0.5,0.2-0.8,0.8-0.6,1.3c0,0.1,1.2,2.9,4.2,4.1c2.2,0.9,4.7,0.8,7.6-0.4  c2,1.6,4.3,2.2,6.3,2.2c2.6,0,4.9-0.8,5.9-1.2c0.9,0.4,3.2,1.2,5.9,1.2c2.1,0,4.4-0.5,6.3-2.2c2.9,1.1,5.4,1.3,7.6,0.4  c3-1.3,4.1-4,4.2-4.1C48.1,22.8,47.9,22.2,47.4,22z"/>
<path fill="#FF1744" d="M20,15.4c0,1.4-1.1,2.5-2.5,2.5S15,16.8,15,15.4s1.1-2.5,2.5-2.5S20,14.1,20,15.4z M28,11.9  c-1.1,0-2,0.9-2,2s0.9,2,2,2s2-0.9,2-2S29.1,11.9,28,11.9z M37,15.9c-1.7,0-3,1.3-3,3s1.3,3,3,3s3-1.3,3-3  C40,17.3,38.7,15.9,37,15.9z M24,17.9c-1.7,0-3,1.3-3,3s1.3,3,3,3s3-1.3,3-3C27,19.3,25.7,17.9,24,17.9z M9.5,17.9  C8.1,17.9,7,19,7,20.4s1.1,2.5,2.5,2.5s2.5-1.1,2.5-2.5C12,19.1,10.9,17.9,9.5,17.9z"/>
<path fill="#B71C1C" d="M15,18.4c0,1.4-1.1,2.5-2.5,2.5S10,19.8,10,18.4s1.1-2.5,2.5-2.5S15,17.1,15,18.4z M16,21.9c0,1.1,0.9,2,2,2  s2-0.9,2-2s-0.9-2-2-2S16,20.8,16,21.9z M31,16.9c-1.7,0-3,1.3-3,3s1.3,3,3,3s3-1.3,3-3C34,18.3,32.7,16.9,31,16.9z M41,21.9  c1.1,0,2-0.9,2-2s-0.9-2-2-2s-2,0.9-2,2C39,21.1,39.9,21.9,41,21.9z M24.5,10.9c-1.4,0-2.5,1.1-2.5,2.5s1.1,2.5,2.5,2.5  s2.5-1.1,2.5-2.5S25.9,10.9,24.5,10.9z"/>
</svg>