<?xml version="1.0" encoding="utf-8"?><!-- Generator: Adobe Illustrator 15.0.0, SVG Export Plug-In . SVG Version: 6.00 Build 0)  --><!DOCTYPE svg PUBLIC "-//W3C//DTD SVG 1.1//EN" "http://www.w3.org/Graphics/SVG/1.1/DTD/svg11.dtd"><svg xmlns="http://www.w3.org/2000/svg" xmlns:xlink="http://www.w3.org/1999/xlink" version="1.1" x="0px" y="0px" width="528" height="528" viewBox="0 0 48 48" enable-background="new 0 0 48 48" xml:space="preserve">
<g>
	<path fill="#FF9800" d="M9.711,39c-1.197,0-2.291-0.812-2.61-2.034c-0.378-1.456,0.482-2.946,1.923-3.33   c0.056-0.017,1.23-0.352,2.902-1.007C7.494,29.203,6.028,24.123,6,20.844C6.107,12.14,13.124,9,17.812,9   c1.901,0,4.177,0.518,6.214,1.701C25.693,9.657,27.799,9,30.412,9c3.402,0,6.169,1.065,8.225,3.168   c3.33,3.406,3.369,8.155,3.363,8.686c0.002,0.188,0.002,6.056-4.393,10.535c-0.473,0.479-0.976,0.928-1.507,1.337   c0.946,0.319,1.966,0.623,3.065,0.901c1.447,0.365,2.327,1.845,1.965,3.307c-0.361,1.461-1.83,2.354-3.273,1.982   c-3.416-0.862-6.223-1.947-8.531-3.159c-1.606,0.341-3.346,0.513-5.213,0.513c-2.114,0-3.999-0.22-5.676-0.618   c-4.031,2.165-7.698,3.168-8.037,3.257C10.17,38.968,9.938,39,9.711,39z M27.467,27.836c0.703,0.685,1.553,1.371,2.58,2.041   c6.293-2.327,6.548-8.236,6.553-9.055c-0.002-1.079-0.307-6.365-6.188-6.365c-0.901,0-1.674,0.121-2.337,0.334   c0.892,1.613,1.437,3.605,1.437,6.029C29.512,23.485,28.723,25.816,27.467,27.836z M17.794,14.457   c-1.025,0.013-6.32,0.394-6.395,6.397c0.019,0.745,0.366,6.445,6.362,8.875c0.975-0.62,1.924-1.309,2.779-2.075   c-1.844-3.348-1.859-6.195-1.828-6.908c0.011-1.802,0.468-3.922,1.495-5.861C19.147,14.516,18.184,14.463,17.794,14.457z"/>
	<path fill="#FF9800" d="M38.514,39c-0.217,0-0.438-0.029-0.656-0.084c-19.063-4.813-19.211-16.61-19.145-18.169   C18.744,15.995,21.872,9,30.412,9c1.49,0,2.7,1.223,2.7,2.73c0,1.504-1.21,2.727-2.7,2.727c-6.123,0-6.299,5.711-6.299,6.363   c0,0.073-0.003,0.147-0.01,0.224c-0.014,0.311-0.246,8.717,15.063,12.583c1.447,0.365,2.327,1.845,1.965,3.307   C40.824,38.172,39.724,39,38.514,39z"/>
</g>
<g>
	<path fill="#D66100" d="M30.053,29.873c1.566,1.026,3.549,2.002,6.051,2.849c0.531-0.408,1.033-0.855,1.504-1.333   c0.023-0.024,0.041-0.047,0.061-0.068c-2.324-0.71-4.193-1.523-5.691-2.378C31.406,29.289,30.773,29.608,30.053,29.873z"/>
	<path fill="#D66100" d="M20.208,14.885c-0.007,0.01-0.013,0.023-0.018,0.037c0.988-1.888,2.519-3.604,4.697-4.696   c-0.298,0.149-0.587,0.304-0.861,0.476c-0.614-0.356-1.253-0.647-1.897-0.886c-1.67,1.286-2.89,2.931-3.728,4.678   C18.875,14.537,19.52,14.645,20.208,14.885z"/>
	<path fill="#D66100" d="M11.925,32.629c1.659-0.652,3.804-1.619,5.833-2.9c-0.706-0.287-1.326-0.623-1.885-0.986   c-2.007,1.146-4.063,1.994-5.487,2.519C10.855,31.737,11.367,32.196,11.925,32.629z"/>
	<path fill="#D66100" d="M25.253,33.119c1.353-1.203,2.589-2.566,3.587-4.103c-0.508-0.392-0.968-0.787-1.373-1.181   c0.076-0.123,0.146-0.252,0.219-0.377c-2.299,3.946-6.386,6.75-10.017,8.593c0.255-0.13,0.511-0.263,0.769-0.4   c0.864,0.204,1.788,0.361,2.765,0.467c1.893,0.134,2.798,0.288,5.247,0.05c1.001-0.082,1.963-0.218,2.878-0.411   c0.291,0.152,0.592,0.302,0.9,0.452C28.246,35.254,26.611,34.205,25.253,33.119z"/>
	<path fill="#D66100" d="M28.828,16.555c-0.213-0.626-0.455-1.225-0.753-1.764c0.049-0.016,0.108-0.021,0.159-0.036l-0.053-0.114   c-0.162,0.074-3.989,1.868-4.896,6.336c-0.559,2.75-2.876,4.491-3.551,4.947c0.223,0.558,0.477,1.132,0.807,1.73   c-0.013,0.012-0.027,0.021-0.04,0.032l0.051,0.088c0.157-0.092,3.857-2.295,4.692-6.399C25.853,18.383,28.149,16.926,28.828,16.555   z"/>
</g>
<g>
	<path fill="#FFF9C4" d="M10.053,23.002c0.552,0.031,0.974,0.502,0.943,1.054S10.494,25.029,9.941,25C9.39,24.969,8,23.89,8,23.89   S9.5,22.971,10.053,23.002z"/>
	<path fill="#FFF9C4" d="M40,20c0,0.553-0.447,1-1,1s-1-0.447-1-1s1-2,1-2S40,19.447,40,20z"/>
	<path fill="#FFF9C4" d="M12.888,13.236c-0.254,0.49-0.858,0.682-1.348,0.428s-0.682-0.857-0.427-1.348   C11.367,11.825,12.921,11,12.921,11S13.143,12.746,12.888,13.236z"/>
	<path fill="#FFF9C4" d="M31.398,12.545c-0.375,0.406-1.007,0.434-1.413,0.06c-0.407-0.374-0.435-1.006-0.06-1.413   c0.373-0.406,2.09-0.796,2.09-0.796S31.771,12.138,31.398,12.545z"/>
	<path fill="#FFF9C4" d="M37.469,13.484c0.553-0.018,1.014,0.416,1.03,0.969c0.018,0.552-0.415,1.014-0.968,1.031   S35.5,14.547,35.5,14.547S36.916,13.502,37.469,13.484z"/>
	<path fill="#FFF9C4" d="M21.968,17c0.553-0.018,1.014,0.416,1.031,0.969c0.018,0.552-0.416,1.014-0.968,1.031   C21.478,19.017,20,18.063,20,18.063S21.416,17.018,21.968,17z"/>
	<path fill="#FFF9C4" d="M20.002,20.918c0.05-0.551,0.536-0.956,1.086-0.906s0.956,0.535,0.906,1.086   C21.944,21.648,20.818,23,20.818,23S19.952,21.468,20.002,20.918z"/>
	<path fill="#FFF9C4" d="M15.969,11c0.553-0.018,1.014,0.416,1.031,0.969c0.018,0.552-0.416,1.014-0.968,1.031   c-0.552,0.017-2.03-0.938-2.03-0.938S15.417,11.018,15.969,11z"/>
	<path fill="#FFF9C4" d="M38.258,26.977c-0.539,0.117-1.072-0.224-1.189-0.764c-0.117-0.539,0.225-1.072,0.764-1.189   C38.373,24.906,40,25.574,40,25.574S38.799,26.859,38.258,26.977z"/>
	<path fill="#FFF9C4" d="M25.213,14.977c-0.54,0.117-1.072-0.224-1.189-0.764c-0.118-0.539,0.224-1.072,0.764-1.189   s2.168,0.551,2.168,0.551S25.754,14.859,25.213,14.977z"/>
	<path fill="#FFF9C4" d="M9.258,17.967c-0.54,0.117-1.072-0.224-1.189-0.764c-0.118-0.539,0.224-1.072,0.764-1.189   S11,16.564,11,16.564S9.799,17.85,9.258,17.967z"/>
	<path fill="#FFF9C4" d="M33.999,11.959c0.022,0.55-0.405,1.017-0.957,1.041c-0.552,0.021-1.019-0.405-1.042-0.957   c-0.022-0.554,0.916-2.041,0.916-2.041S33.976,11.405,33.999,11.959z"/>
</g>
</svg>