<?xml version="1.0" encoding="utf-8"?><!-- Generator: Adobe Illustrator 19.1.1, SVG Export Plug-In . SVG Version: 6.00 Build 0)  --><svg xmlns="http://www.w3.org/2000/svg" xmlns:xlink="http://www.w3.org/1999/xlink" version="1.1" x="0px" y="0px" viewBox="0 0 48 48" enable-background="new 0 0 48 48" xml:space="preserve" width="528" height="528">
<path fill="#FFA000" d="M42.9,27.4c-1-2.3-3.2-9-8.2-14C29.8,8.6,23.4,6,20.6,5.2c-0.9-0.2-1.1-0.3-1.4,0.6  c-0.3,0.7-1.1,3.1-1.5,4.3c-0.1,0.2-0.1,0.4-0.1,0.5c9.2,3.5,16.5,10.8,20,20c0,0,0,0,0.1,0c0.7-0.2,3.7-1.3,4.4-1.5  C42.8,28.8,43.2,28.3,42.9,27.4z"/>
<path fill="#BF360C" d="M37,22.1c-0.1-0.5-0.1-1-0.2-1.5c-0.2-1.6-1.6-3-3.1-3.2c-0.7-0.1-1.5-0.1-1.9-0.6c-0.6-0.6-0.4-1.6-0.5-2.4  c-0.1-1.6-1.6-3-3.2-3c-1,0-2.1,0.4-3.1,0c-0.6-0.3-0.9-0.8-1.3-1.3c-0.8-1-1.9-1.8-3.1-2.1c-0.7-0.2-1.5-0.2-2.2,0  c-0.3,0.8-0.5,1.6-0.7,2.1c-0.1,0.2-0.1,0.4-0.1,0.5c9.2,3.5,16.5,10.8,20,20c0,0,0,0,0.1,0c0.4-0.1,1.3-0.4,2.3-0.8  c-0.2-0.5-0.3-1-0.2-1.4c0.1-0.3,0.3-0.6,0.5-0.9c0.4-1-0.3-2.1-1.1-2.8C38.3,23.8,37.3,23.2,37,22.1z"/>
<path fill="#FFC107" d="M17.5,10.6L5,43l32.5-12.4C34,21.4,26.7,14.1,17.5,10.6z"/>
<path fill="#F57F17" d="M12,37c0,0.6-0.4,1-1,1s-1-0.4-1-1s0.4-1,1-1S12,36.5,12,37z M18.7,35.7c0.4-0.4,0.4-1,0-1.4l-5-5  c-0.4-0.4-1-0.4-1.4,0s-0.4,1,0,1.4l5,5c0.2,0.2,0.5,0.3,0.7,0.3S18.5,35.9,18.7,35.7z M25.7,32.7c0.4-0.4,0.4-1,0-1.4l-9-9  c-0.4-0.4-1-0.4-1.4,0s-0.4,1,0,1.4l9,9c0.2,0.2,0.5,0.3,0.7,0.3S25.5,32.9,25.7,32.7z M32.7,29.7c0.4-0.4,0.4-1,0-1.4l-13-13  c-0.4-0.4-1-0.4-1.4,0s-0.4,1,0,1.4l13,13c0.2,0.2,0.5,0.3,0.7,0.3S32.5,29.9,32.7,29.7z"/>
</svg>