<?xml version="1.0" encoding="iso-8859-1"?><!-- Generator: Adobe Illustrator 19.1.1, SVG Export Plug-In . SVG Version: 6.00 Build 0)  --><svg xmlns="http://www.w3.org/2000/svg" xmlns:xlink="http://www.w3.org/1999/xlink" version="1.1" id="Layer_1" x="0px" y="0px" viewBox="0 0 48 48" enable-background="new 0 0 48 48" xml:space="preserve" width="528" height="528">
<path fill="#E5E5E5" d="M38.86,22.14C38.488,20.905,37.356,20,36,20c-0.017,0-0.033,0.005-0.05,0.005  C35.708,18.309,34.263,17,32.5,17c-1.078,0-2.03,0.498-2.672,1.264C29.418,18.096,28.971,18,28.5,18  c-0.339,0-0.661,0.064-0.971,0.154C26.86,16.879,25.539,16,24,16c-1.498,0-2.789,0.834-3.474,2.053C20.355,18.023,20.18,18,20,18  c-0.243,0-0.477,0.037-0.703,0.092C18.747,17.43,17.928,17,17,17c-0.626,0-1.206,0.192-1.687,0.52C14.783,17.196,14.167,17,13.5,17  c-1.933,0-3.5,1.567-3.5,3.5c0,0.187,0.027,0.366,0.055,0.545C8.335,21.266,7,22.719,7,24.5c0,1.933,1.567,3.5,3.5,3.5  c0.171,0,0.335-0.027,0.5-0.05V28h26v-0.184C37.314,27.928,37.647,28,38,28c1.657,0,3-1.343,3-3  C41,23.644,40.095,22.512,38.86,22.14z"/>
<path fill="#FFCC80" d="M31.702,20.153L40.366,8L42,9.153L33.555,21H31.95C31.907,20.702,31.815,20.422,31.702,20.153z   M30.45,18.594L37,5.928L35.228,5l-6.723,13.001C29.225,18.002,29.894,18.22,30.45,18.594z"/>
<path fill="#BCAAA4" d="M32.105,23.555c0.246-0.496,0.847-0.695,1.342-0.449l0,0c0.494,0.246,0.694,0.848,0.447,1.34L33,26.234  c-0.246,0.496-0.847,0.695-1.342,0.449l0,0c-0.494-0.246-0.693-0.848-0.447-1.34L32.105,23.555z M19.889,23.303  c-0.385,0.396-0.377,1.029,0.018,1.414l0,0c0.398,0.385,1.03,0.377,1.415-0.019l1.395-1.434c0.386-0.397,0.376-1.029-0.02-1.414l0,0  c-0.396-0.387-1.03-0.377-1.414,0.019L19.889,23.303z M14.548,20.066c-0.463-0.301-1.081-0.176-1.384,0.289l0,0  c-0.303,0.461-0.174,1.082,0.289,1.383l1.672,1.098c0.463,0.305,1.082,0.172,1.385-0.289l0,0c0.304-0.461,0.174-1.082-0.289-1.383  L14.548,20.066z M26.548,20.164c-0.463-0.303-1.081-0.176-1.384,0.287l0,0c-0.303,0.463-0.174,1.082,0.289,1.385l1.672,1.096  c0.463,0.305,1.082,0.174,1.385-0.287l0,0c0.304-0.463,0.174-1.084-0.289-1.385L26.548,20.164z"/>
<path fill="#5D4037" d="M5,25h38c0,0-0.067,16-19,16S5,25,5,25z"/>
<rect x="17" y="40" fill="#3E2723" width="14" height="3"/>
</svg>