<?xml version="1.0" encoding="utf-8"?><!-- Generator: Adobe Illustrator 15.0.0, SVG Export Plug-In . SVG Version: 6.00 Build 0)  --><!DOCTYPE svg PUBLIC "-//W3C//DTD SVG 1.1//EN" "http://www.w3.org/Graphics/SVG/1.1/DTD/svg11.dtd"><svg xmlns="http://www.w3.org/2000/svg" xmlns:xlink="http://www.w3.org/1999/xlink" version="1.1" x="0px" y="0px" width="528" height="528" viewBox="0 0 48 48" enable-background="new 0 0 48 48" xml:space="preserve">
<g>
	<polygon fill="#2196F3" points="43,14.234 31.214,14.234 31.214,12.413 43,12.41 43,10.588 31.214,10.588 31.214,8.766 43,8.766    43,6.943 29.643,6 26,9 26,14 29.643,17 43,16.058  "/>
	<path fill="#2196F3" d="M4,39c0,0,2,4,10,4c4,0,12,0,20,0s10-4,10-4H4"/>
</g>
<g>
	<path fill="#FFE082" d="M37,39v-5.725c-2.715-2.273-6.602-3.822-11.005-4.186C25.339,29.035,24.676,29,24,29   c-8.421,0-15.394,4.327-16.745,10H37z"/>
	<path fill="#FFE082" d="M39,39V6c0-0.553-0.447-1-1-1s-1,0.447-1,1v33H39z"/>
</g>
<path fill="#3F51B5" d="M26,14l0.209-5H5.823C4.816,9,3.999,9.816,4,10.823l0.001,1.354C4,13.184,4.818,14,5.823,14H26z"/>
<g>
	<path fill="none" stroke="#FFB300" stroke-width="2" stroke-linecap="round" d="M36,6v17c0,0,0,3-3,3s-3-3-3-3s0-2,2-2"/>
	<path fill="#FFB300" d="M9.302,39c0.814-2.665,3.231-4.941,6.54-6.379c-2.365,1.711-4,3.918-4.587,6.379h2.047   c0.814-2.665,3.231-4.941,6.54-6.379c-2.365,1.711-4,3.918-4.587,6.379h2.047c0.814-2.665,3.231-4.941,6.54-6.379   c-2.365,1.711-4,3.918-4.587,6.379h2.047c0.814-2.665,3.231-4.941,6.54-6.379c-2.365,1.711-4,3.918-4.587,6.379h2.047   c0.814-2.665,3.231-4.941,6.54-6.379c-2.365,1.711-4,3.918-4.587,6.379h2.047c0.654-2.141,2.347-4.028,4.698-5.436   c0.138,0.082,0.279,0.161,0.411,0.247c-1.593,1.498-2.697,3.263-3.156,5.188h2.047c0.45-1.472,1.393-2.824,2.698-3.985   c0.365,0.325,0.694,0.668,1,1.021v-2.725c-2.714-2.286-6.587-3.856-11.005-4.222C25.339,29.035,24.676,29,24,29   c-8.421,0-15.394,4.327-16.745,10H9.302z"/>
	<g>
		<path fill="#FFB300" d="M41,39V6c0-0.553-0.447-1-1-1s-1,0.447-1,1v33H41z"/>
		<path fill="#FFB300" d="M37,39V6c0-0.553-0.447-1-1-1s-1,0.447-1,1v33H37z"/>
	</g>
</g>
</svg>