<?xml version="1.0" encoding="utf-8"?><!-- Generator: Adobe Illustrator 15.0.0, SVG Export Plug-In . SVG Version: 6.00 Build 0)  --><!DOCTYPE svg PUBLIC "-//W3C//DTD SVG 1.1//EN" "http://www.w3.org/Graphics/SVG/1.1/DTD/svg11.dtd"><svg xmlns="http://www.w3.org/2000/svg" xmlns:xlink="http://www.w3.org/1999/xlink" version="1.1" x="0px" y="0px" width="528" height="528" viewBox="0 0 48 48" enable-background="new 0 0 48 48" xml:space="preserve">
<path fill="#F44336" d="M5.399,36.264c0.482,3.715,2.973,6.532,6.494,6.532c17.25,0,26.365-8.233,26.365-8.233  c0.4-0.399,5.516-5.104,5.516-10.443c0-4.709-3.651-9.019-6.981-11.854c-2.705-2.301-5.495-5.104-9.33-5.104  c-6.81,0-10.751,2.589-12.313,7.214C17.962,30.375,4.462,29.063,5.399,36.264z"/>
<g>
	<g>
		<path fill="#FF8A80" d="M24.9,25.907c-0.02-0.036-0.038-0.073-0.054-0.113c-0.204-0.515,0.047-1.099,0.562-1.303    c0.516-0.205,1.099,0.047,1.304,0.562c0.568,1.432,0.844,2.846,0.794,4.352c-0.047,1.481-0.614,3.027-1.691,4.068    c-0.549,0.53-1.124,0.875-1.646,1.287c-0.535,0.405-1.062,0.822-1.572,1.258c-0.512,0.435-1.008,0.887-1.469,1.373    c-0.438,0.493-0.936,0.994-1.104,1.651c0.09-0.683,0.533-1.255,0.916-1.808c0.407-0.549,0.855-1.067,1.318-1.568    c0.463-0.502,0.943-0.986,1.435-1.461c0.488-0.484,1.028-0.92,1.395-1.389c0.762-0.967,1.035-2.186,0.928-3.396    c-0.099-1.199-0.528-2.458-1.094-3.473L24.9,25.907z"/>
	</g>
	<g>
		<path fill="#FF8A80" d="M32.568,22.012c-0.063-0.555,0.335-1.055,0.891-1.118c0.555-0.063,1.056,0.335,1.119,0.89l0.001,0.016    c0.083,0.731,0.073,1.373,0.027,2.049c-0.049,0.667-0.158,1.328-0.334,1.969c-0.346,1.277-1.045,2.496-2.081,3.224    c0.802-0.979,1.09-2.198,1.091-3.368c0-0.59-0.062-1.175-0.175-1.75c-0.11-0.564-0.272-1.161-0.47-1.641    C32.604,22.201,32.58,22.107,32.568,22.012z"/>
	</g>
	<g>
		<path fill="#FF8A80" d="M30.641,16.223c0.071-0.048,0.147-0.091,0.229-0.127c0.759-0.341,1.649-0.001,1.99,0.759    c0.341,0.76,0.001,1.651-0.759,1.992c-1.301,0.582-2.539,0.976-3.934,1.197c-0.691,0.1-1.412,0.148-2.166,0.05    c-0.767-0.091-1.511-0.38-2.138-0.846c-0.637-0.47-1.085-1.137-1.34-1.783c-0.26-0.651-0.383-1.288-0.506-1.899    c-0.119-0.613-0.238-1.199-0.452-1.767c-0.222-0.541-0.466-1.166-1.042-1.423c0.641,0.127,1.057,0.725,1.41,1.236    c0.354,0.536,0.623,1.135,0.873,1.704c0.482,1.148,1.059,2.196,1.928,2.524c0.88,0.365,1.854,0.267,2.908-0.092    c1.022-0.344,2.096-0.909,2.972-1.51L30.641,16.223z"/>
	</g>
	<g>
		<path fill="#FF8A80" d="M34.086,16.511c-0.067,1.14-0.001,2.422,0.187,3.607c0.192,1.196,0.524,2.369,1.124,3.352    c0.314,0.511,0.646,0.85,1.191,1.331c0.51,0.485,0.965,1.032,1.289,1.674c0.327,0.633,0.466,1.379,0.354,2.063    c-0.105,0.688-0.423,1.286-0.769,1.836c0.237-0.606,0.422-1.242,0.395-1.858c-0.022-0.617-0.254-1.184-0.62-1.648    c-0.361-0.467-0.838-0.859-1.344-1.182c-0.501-0.287-1.207-0.754-1.678-1.291c-0.992-1.086-1.632-2.385-2.115-3.692    c-0.478-1.33-0.812-2.634-1.012-4.09L34.086,16.511z"/>
	</g>
	<g>
		<path fill="#FF8A80" d="M26.106,31.072c0.024-0.276,0.268-0.48,0.544-0.457c0.277,0.023,0.482,0.267,0.458,0.543l-0.001,0.012    c-0.074,0.871-0.066,1.793,0.063,2.676c0.066,0.443,0.17,0.883,0.345,1.293c0.176,0.406,0.434,0.799,0.842,1.028    c-0.444-0.149-0.799-0.513-1.062-0.908c-0.264-0.399-0.457-0.842-0.611-1.292c-0.306-0.908-0.484-1.833-0.577-2.803    C26.105,31.135,26.105,31.104,26.106,31.072z"/>
	</g>
</g>
<path fill="#FBE9E7" d="M30.649,15.188c2.367-8.512-7.609-8.141-9.734-7.766C25.447,6,29.881,4.556,37.257,12.681  c7.062,6.438,8.564,10.882,7.331,14.256c0.937-5.875-8.309-15.588-11.063-9.5c-4.75,10.5-21.736,17.798-22.875,18.5  c-1.219,0.75-2.453-0.687-1.5-1.5C10.226,33.521,27.399,26.875,30.649,15.188z"/>
<path fill="#FFCCBC" d="M4.152,37.82l0.041-0.002c0.356,3.574,3.041,6.164,6.957,6.164c19.542,0,28-8.795,28-8.795  c0.428-0.426,5.875-5.437,5.875-11.125c0-5.016-3.891-9.606-7.438-12.625C34.706,8.985,31.733,6,27.649,6  c-4.452,0-8.568,1.857-11.531,4.719l0.002,0.023c-2.404,2.351-2.103,5.048-1.834,7.429c0.256,2.264,0.498,4.403-1.181,6.597  c-1.258,1.645-2.673,2.842-4.04,3.998C6.372,31.046,3.829,33.199,4.152,37.82z M6.149,37c0-0.299,0.012-0.561,0.037-0.811  c0.023-0.207,0.059-0.406,0.1-0.6c0.104-0.447,0.278-0.912,0.551-1.521c0.74-1.401,2-2.488,3.521-3.776  c1.382-1.169,2.946-2.495,4.336-4.31c2.169-2.833,1.856-5.598,1.58-8.037c-0.257-2.285-0.458-4.093,1.229-5.756  C20.144,9.566,23.734,8,27.649,8c2.916,0,5.255,2.028,7.73,4.175c0.306,0.264,0.608,0.527,0.911,0.785  c2.515,2.14,6.733,6.428,6.733,11.102c0,4.141-3.623,8.096-5.181,9.605l-0.056,0.056c-0.464,0.404-9.056,8.485-26.639,8.26  C8.315,42.007,6.149,39.84,6.149,37z"/>
</svg>