<?xml version="1.0" encoding="utf-8"?><!-- Generator: Adobe Illustrator 15.0.0, SVG Export Plug-In . SVG Version: 6.00 Build 0)  --><!DOCTYPE svg PUBLIC "-//W3C//DTD SVG 1.1//EN" "http://www.w3.org/Graphics/SVG/1.1/DTD/svg11.dtd"><svg xmlns="http://www.w3.org/2000/svg" xmlns:xlink="http://www.w3.org/1999/xlink" version="1.1" x="0px" y="0px" width="528" height="528" viewBox="0 0 48 48" enable-background="new 0 0 48 48" xml:space="preserve">
<path fill="#FFA000" d="M43.956,28.713C43.507,19.555,35.649,12,26,12c-9.65,0-17.507,7.555-17.956,16.713H8v1.644  C8,31.265,8.768,32,9.714,32L41,35c0.947,0,3-3.735,3-4.644v-1.644H43.956z"/>
<path fill="#8BC34A" d="M5.507,30.228c0.277-1.161-1.019-1.358-1.652-2.055C3.412,27.688,3.08,26.838,3.012,26.2  c-0.225-2.115,2.924,0.001,3.269-1.729c0.172-0.865-0.884-1.49-1.455-1.953c-0.65-0.525-1.174-1.171-1.293-2.007  c-0.14-0.981,0.292-1.973,1.458-1.798c0.685,0.104,1.486,1.051,1.998,0.414c0.241-0.297-0.013-0.839-0.024-1.146  c-0.026-0.64,0.01-1.249,0.325-1.812c0.761-1.354,1.528-0.282,2.579-0.882c0.993-0.563,0.373-2.096,1.803-1.57  c1.057,0.387,1.555,0.725,2.24-0.593c0.577-1.112,0.471-2.415,1.983-2.714c1.416-0.278,1.472,0.464,1.835,1.539  c0.232,0.688,0.534,2.063,1.516,2.086c1.075,0.024,1.585-1.433,1.896-2.136c0.477-1.081,1.286-1.969,2.627-1.896  c1.121,0.063,0.761,1.166,1.758,1.664c0.988,0.494,1.55-0.755,2.556-0.357c1.08,0.43,0.142,1.517,0.103,2.288  c-0.158,3.218,3.669-0.971,4.382-1.2c1.257-0.404,1.668,0.269,1.46,1.233c-0.315,1.457-0.065,1.626,1.396,1.364  c0.957-0.17,2.541-0.561,2.629,0.777c0.06,0.878-1.236,1.564-1.101,2.367c0.325,1.948,5.885-0.481,7.14,0.819  c0.434,0.45,0.35,1.765-0.008,2.223c-0.426,0.542-1.519,0.785-1.465,1.645c0.059,0.957,1.362,0.498,1.983,1.048  c0.906,0.803,0.088,1.291-0.607,1.58c-0.479,0.2-0.997,0.462-1.011,1.071c-0.016,0.65,0.682,0.89,1.035,1.397  c0.328,0.475,1.312,2.939,0.669,3.36c-0.608,0.399-0.945-0.622-1.292-0.812c-0.719-0.394-0.756,0.064-1.116,0.559  c-0.531,0.726-1.273,1.229-2.11,1.626c-2.27,1.079-3.357-0.671-5.452-1.361L5.507,30.228z"/>
<g>
	<path fill="#795548" d="M42,27c0,1.104-0.896,2-2,2h-2c-1.104,0-2-0.896-2-2v-2c0-1.104,0.896-2,2-2h2c1.104,0,2,0.896,2,2V27z"/>
	<path fill="#795548" d="M28,17c0,1.104-0.896,2-2,2h-2c-1.104,0-2-0.896-2-2v-2c0-1.104,0.896-2,2-2h2c1.104,0,2,0.896,2,2V17z"/>
	<path fill="#795548" d="M11,24.414c-0.781,0.781-2.047,0.781-2.828,0L6.758,23c-0.781-0.781-0.781-2.047,0-2.828l1.414-1.414   c0.781-0.781,2.047-0.781,2.828,0l1.414,1.414c0.781,0.781,0.781,2.047,0,2.828L11,24.414z"/>
</g>
<g>
	<path fill="#FF3D00" d="M35.828,22.414c-0.781,0.781-2.047,0.781-2.828,0L31.586,21c-0.781-0.781-0.781-2.047,0-2.828L33,16.758   c0.781-0.781,2.047-0.781,2.828,0l1.414,1.414c0.781,0.781,0.781,2.047,0,2.828L35.828,22.414z"/>
	<path fill="#FF3D00" d="M17.828,19.414c-0.781,0.781-2.047,0.781-2.828,0L13.586,18c-0.781-0.781-0.781-2.047,0-2.828L15,13.758   c0.781-0.781,2.047-0.781,2.828,0l1.414,1.414c0.781,0.781,0.781,2.047,0,2.828L17.828,19.414z"/>
</g>
<path fill="#FFC107" d="M43.887,31.036c-0.078-0.094-0.151-0.192-0.223-0.284C40.926,36.671,40,33,40,33l-0.046-0.305  C39.496,23.546,31.645,16,21.999,16C12.35,16,4.492,23.555,4.043,32.711H4v1.644C4,35.263,4.767,36,5.714,36h32.571  c0.091,0,0.179-0.013,0.266-0.025C42.51,35.713,43.594,32.678,43.887,31.036z"/>
<g>
	<circle fill="#F57C00" cx="11.001" cy="29" r="1.001"/>
	<circle fill="#F57C00" cx="13" cy="26" r="1"/>
	<circle fill="#F57C00" cx="15.001" cy="29" r="1.001"/>
</g>
</svg>