<?xml version="1.0" encoding="utf-8"?><!-- Generator: Adobe Illustrator 15.0.0, SVG Export Plug-In . SVG Version: 6.00 Build 0)  --><!DOCTYPE svg PUBLIC "-//W3C//DTD SVG 1.1//EN" "http://www.w3.org/Graphics/SVG/1.1/DTD/svg11.dtd"><svg xmlns="http://www.w3.org/2000/svg" xmlns:xlink="http://www.w3.org/1999/xlink" version="1.1" x="0px" y="0px" width="528" height="528" viewBox="0 0 48 48" enable-background="new 0 0 48 48" xml:space="preserve">
<g>
	<path fill="none" stroke="#8BC34A" stroke-width="3" stroke-linecap="round" d="M27,19.789c-13,1-19-8-19-8"/>
	<path fill="#8BC34A" d="M18.586,28.167c7.079,2.605,17.543-3.733,19.946-5.066C34.352,21.229,31.68,9.778,24.297,8.24   c-5.227-1.088-8.959,1.477-8.114,8.456C11.647,20.113,13.576,26.321,18.586,28.167z"/>
</g>
<path fill="#689F38" d="M24.297,8.24c7.383,1.538,10.055,12.989,14.235,14.86c-0.002,0.002-0.002,0.002-0.004,0.002  c-3.396,0.142-10.211-0.729-22.373-6.382c0.011-0.009,0.018-0.017,0.027-0.024C15.338,9.717,19.07,7.152,24.297,8.24z"/>
<g>
	<path fill="#00BCD4" d="M6,26.039C6,33.921,11.073,36.563,18.126,39h11.748C36.927,36.563,42,33.921,42,26.039H6z"/>
	<rect x="18" y="37" fill="#00BCD4" width="12" height="4"/>
</g>
<path fill="#006B6B" d="M41.102,31C41.684,29.604,42,28.004,42,26.04H6c0,1.964,0.316,3.564,0.898,4.96H41.102z"/>
</svg>