<?xml version="1.0" encoding="utf-8"?><!-- Generator: Adobe Illustrator 15.0.0, SVG Export Plug-In . SVG Version: 6.00 Build 0)  --><!DOCTYPE svg PUBLIC "-//W3C//DTD SVG 1.1//EN" "http://www.w3.org/Graphics/SVG/1.1/DTD/svg11.dtd"><svg xmlns="http://www.w3.org/2000/svg" xmlns:xlink="http://www.w3.org/1999/xlink" version="1.1" x="0px" y="0px" width="528" height="528" viewBox="0 0 48 48" enable-background="new 0 0 48 48" xml:space="preserve">
<path fill="#8BC34A" d="M15.097,15c-2.035,0.262-4.92-1.15-5.089-3.227c-0.07-0.854,0.32-1.695,1.278-1.746  c0.86-0.046,1.567,0.787,1.717-0.48c0.086-0.725-0.787-1.531-0.149-2.255c1.343-1.522,2.708,1.251,3.95,0.578  c0.818-0.444,0.004-4.016,1.535-3.599c0.351,0.096,0.383,0.834,0.57,1.098c0.542,0.77,1.54,1.016,1.874-0.092  c0.239-0.793-0.107-1.54,0.293-2.334c0.402-0.796,1.136-1.061,2.022-0.897c1.368,0.251,0.797,0.983,1.116,1.88  c0.115,0.32,0.622,0.967,1.003,1.001c0.561,0.05,0.806-0.678,1.281-0.907c1.612-0.777,0.981,0.847,1.687,1.365  c0.4,0.295,0.931-0.207,1.328-0.029c0.429,0.191,0.464,1.042,0.966,1.097c0.43,0.048,1.32-0.923,1.777-1.094  c0.735-0.274,1.896-0.44,2.641-0.093c0.57,0.267,1.433,1.271,1.449,1.928c0.016,0.641-0.6,1.073-0.77,1.692  c-0.188,0.685-0.196,1.603,0.694,1.796c0.53,0.114,0.922-0.338,1.476-0.243c0.803,0.138,1.395,1.634,1.223,2.301  c-0.563,2.177-3.771,3.444-5.522,3.261c-1.716-0.18-6.723,2.08-8.447,2.018c-3.632-0.132-4.721-3.23-8.355-3.207  C15.82,14.815,15.919,15.009,15.097,15z"/>
<circle fill="#DCE775" cx="30" cy="16" r="6"/>
<path fill="#2E7D32" d="M30,11c2.757,0,5,2.243,5,5s-2.243,5-5,5s-5-2.243-5-5S27.243,11,30,11 M30,10c-3.313,0-6,2.687-6,6  s2.687,6,6,6s6-2.687,6-6S33.313,10,30,10L30,10z"/>
<circle fill="#FF3D00" cx="20" cy="15" r="6"/>
<g>
	<path fill="none" stroke="#FFEB3B" stroke-width="2" d="M17.788,12c0,0-2.194,5.402,4.212,10.596"/>
	<path fill="none" stroke="#FFEB3B" stroke-width="2" d="M24,8c0,0-5,3-3,11"/>
</g>
<g>
	<path fill="#FFC107" d="M33.711,14.041V14h1.644C36.263,14,37,14.734,37,15.643L35,44c0,0.553-0.447,1-1,1H23   c-5.082-3.016-6-7.482-6-13.748C17,22.003,24.555,14.472,33.711,14.041z"/>
	<path fill="#FFC107" d="M16.289,14.041V14h-1.644C13.737,14,13,14.734,13,15.643L15,44c0,0.553,0.447,1,1,1h8.446   C29.528,41.984,33,37.518,33,31.252C33,22.003,25.445,14.472,16.289,14.041z"/>
</g>
<path fill="#FFA000" d="M26.909,15.779c-0.661,0.318-1.296,0.681-1.909,1.076c4.775,3.077,8,8.364,8,14.396  c0,6.266-3.472,10.732-8.554,13.748h3.458C32.336,41.361,35,36.939,35,31.252C35,24.992,31.786,19.318,26.909,15.779z"/>
<g>
	<circle fill="#F57C00" cx="20" cy="22.999" r="1.001"/>
	<circle fill="#F57C00" cx="22" cy="26" r="1"/>
	<circle fill="#F57C00" cx="18" cy="26" r="1.001"/>
</g>
</svg>